<svg width="862" height="15358" viewBox="0 0 862 15358" fill="none" xmlns="http://www.w3.org/2000/svg">
<rect x="20" y="20" width="822" height="1122" rx="20" fill="#1A0033"/>
<g clip-path="url(#clip0_5_91)">
<path d="M553.548 590.177L552.97 590.779L434.315 709.434C430.894 712.854 425.348 712.854 421.927 709.434L302.544 590.05C269.819 557.325 269.819 504.268 302.544 471.544C335.268 438.819 388.325 438.819 421.05 471.544L421.063 471.556L427.997 478.49L435.065 471.694C467.871 440.15 520.044 440.542 552.372 472.87C584.7 505.198 585.092 557.371 553.548 590.177Z" stroke="#B366FF" stroke-width="20"/>
<path d="M103.77 179C103.087 179 102.575 178.787 102.234 178.36C101.978 177.848 101.978 177.293 102.234 176.696L137.306 94.136C137.647 93.2827 137.946 92.728 138.202 92.472C138.543 92.1307 139.098 91.96 139.866 91.96H142.17C142.938 91.96 143.45 92.1307 143.706 92.472C144.047 92.728 144.388 93.2827 144.73 94.136L179.802 176.696C179.887 176.867 179.93 177.123 179.93 177.464C179.93 177.891 179.759 178.275 179.418 178.616C179.162 178.872 178.778 179 178.266 179H175.834C174.895 179 174.212 178.829 173.786 178.488C173.359 178.147 172.975 177.592 172.634 176.824L162.906 153.784H119.13L109.402 176.824C109.06 177.592 108.676 178.147 108.25 178.488C107.823 178.829 107.14 179 106.202 179H103.77ZM160.218 147.512L141.018 102.072L121.69 147.512H160.218Z" fill="#B366FF"/>
<path d="M140.798 238.497C130.618 228.317 114.113 228.317 103.933 238.497C93.7526 248.677 93.7526 265.182 103.933 275.362L137.112 308.541C139.148 310.577 142.449 310.577 144.485 308.541L177.664 275.362L177.66 275.359C187.474 265.152 187.352 248.922 177.295 238.865C167.238 228.808 151.008 228.687 140.802 238.5L140.798 238.497Z" fill="#B366FF"/>
<path d="M750.23 979C750.913 979 751.425 979.213 751.766 979.64C752.022 980.152 752.022 980.707 751.766 981.304L716.694 1063.86C716.353 1064.72 716.054 1065.27 715.798 1065.53C715.457 1065.87 714.902 1066.04 714.134 1066.04H711.83C711.062 1066.04 710.55 1065.87 710.294 1065.53C709.953 1065.27 709.612 1064.72 709.27 1063.86L674.198 981.304C674.113 981.133 674.07 980.877 674.07 980.536C674.07 980.109 674.241 979.725 674.582 979.384C674.838 979.128 675.222 979 675.734 979H678.166C679.105 979 679.788 979.171 680.214 979.512C680.641 979.853 681.025 980.408 681.366 981.176L691.094 1004.22H734.87L744.598 981.176C744.94 980.408 745.324 979.853 745.75 979.512C746.177 979.171 746.86 979 747.798 979H750.23ZM693.782 1010.49L712.982 1055.93L732.31 1010.49H693.782Z" fill="#B366FF"/>
<path d="M713.202 919.503C723.382 929.683 739.887 929.683 750.067 919.503C760.247 909.323 760.247 892.818 750.067 882.638L716.888 849.459C714.852 847.423 711.551 847.423 709.515 849.459L676.336 882.638L676.34 882.641C666.526 892.848 666.648 909.078 676.705 919.135C686.762 929.191 702.992 929.313 713.198 919.5L713.202 919.503Z" fill="#B366FF"/>
</g>
<rect x="20" y="1203" width="822" height="1122" rx="20" fill="#1A0033"/>
<g clip-path="url(#clip1_5_91)">
<path d="M114.544 1362C112.581 1362 111.6 1361.02 111.6 1359.06V1277.9C111.6 1275.94 112.581 1274.96 114.544 1274.96H115.568C117.531 1274.96 118.512 1275.94 118.512 1277.9V1359.06C118.512 1361.02 117.531 1362 115.568 1362H114.544ZM166.768 1362C166.171 1362 165.744 1361.96 165.488 1361.87C165.317 1361.79 165.061 1361.57 164.72 1361.23L127.216 1322.19C127.045 1322.02 126.747 1321.72 126.32 1321.3C125.893 1320.78 125.595 1320.36 125.424 1320.02C125.253 1319.59 125.168 1319.08 125.168 1318.48C125.168 1317.8 125.296 1317.24 125.552 1316.82C125.808 1316.39 126.107 1316.01 126.448 1315.66C126.789 1315.24 127.045 1314.94 127.216 1314.77L164.08 1275.73C164.421 1275.39 164.677 1275.17 164.848 1275.09C165.104 1275 165.531 1274.96 166.128 1274.96H170.992C171.845 1274.96 172.272 1275.26 172.272 1275.86C172.272 1276.2 171.973 1276.67 171.376 1277.26L132.464 1318.48L172.016 1359.7C172.613 1360.29 172.912 1360.76 172.912 1361.1C172.912 1361.7 172.485 1362 171.632 1362H166.768Z" fill="#B366FF"/>
<path d="M140.798 1421.5C130.618 1411.32 114.113 1411.32 103.933 1421.5C93.7526 1431.68 93.7526 1448.18 103.933 1458.36L137.112 1491.54C139.148 1493.58 142.449 1493.58 144.485 1491.54L177.664 1458.36L177.66 1458.36C187.474 1448.15 187.352 1431.92 177.295 1421.87C167.238 1411.81 151.008 1411.69 140.802 1421.5L140.798 1421.5Z" fill="#B366FF"/>
<path d="M739.456 2162C741.419 2162 742.4 2162.98 742.4 2164.94V2246.1C742.4 2248.06 741.419 2249.04 739.456 2249.04H738.432C736.469 2249.04 735.488 2248.06 735.488 2246.1V2164.94C735.488 2162.98 736.469 2162 738.432 2162H739.456ZM687.232 2162C687.829 2162 688.256 2162.04 688.512 2162.13C688.683 2162.21 688.939 2162.43 689.28 2162.77L726.784 2201.81C726.955 2201.98 727.253 2202.28 727.68 2202.7C728.107 2203.22 728.405 2203.64 728.576 2203.98C728.747 2204.41 728.832 2204.92 728.832 2205.52C728.832 2206.2 728.704 2206.76 728.448 2207.18C728.192 2207.61 727.893 2207.99 727.552 2208.34C727.211 2208.76 726.955 2209.06 726.784 2209.23L689.92 2248.27C689.579 2248.61 689.323 2248.83 689.152 2248.91C688.896 2249 688.469 2249.04 687.872 2249.04H683.008C682.155 2249.04 681.728 2248.74 681.728 2248.14C681.728 2247.8 682.027 2247.33 682.624 2246.74L721.536 2205.52L681.984 2164.3C681.387 2163.71 681.088 2163.24 681.088 2162.9C681.088 2162.3 681.515 2162 682.368 2162H687.232Z" fill="#B366FF"/>
<path d="M713.202 2102.5C723.382 2112.68 739.887 2112.68 750.067 2102.5C760.247 2092.32 760.247 2075.82 750.067 2065.64L716.888 2032.46C714.852 2030.42 711.551 2030.42 709.515 2032.46L676.336 2065.64L676.34 2065.64C666.526 2075.85 666.648 2092.08 676.705 2102.13C686.762 2112.19 702.992 2112.31 713.198 2102.5L713.202 2102.5Z" fill="#B366FF"/>
</g>
<path fill-rule="evenodd" clip-rule="evenodd" d="M433.096 1855.14V1919.51C433.096 1920.38 432.061 1920.83 431.42 1920.25L382.38 1875.22C382.257 1875.11 382.107 1875.03 381.944 1874.99L333.246 1862.95C332.8 1862.84 332.486 1862.44 332.486 1861.98V1850.5L381.079 1810.52L387.215 1815.59L432.745 1854.38C432.968 1854.57 433.096 1854.84 433.096 1855.14Z" fill="#8000FF"/>
<path d="M324.403 2097.65H449.266V1998.5L372.873 1886.13H298.325V1953.55C298.325 1953.55 269.036 1960.96 272.246 1972.32C275.455 1983.69 298.325 2020.97 298.325 2020.97L324.403 2097.65Z" fill="#B366FF"/>
<path d="M326.925 2135.38C324.376 2139.44 318.129 2137.93 317.71 2133.16L315.596 2109.08C315.339 2106.15 317.643 2103.64 320.577 2103.64H337.814C341.746 2103.64 344.14 2107.97 342.048 2111.3L326.925 2135.38Z" fill="#B366FF"/>
<path d="M443.448 2135.38C445.997 2139.44 452.244 2137.93 452.663 2133.16L454.777 2109.08C455.034 2106.15 452.73 2103.64 449.796 2103.64H432.559C428.627 2103.64 426.233 2107.97 428.324 2111.3L443.448 2135.38Z" fill="#B366FF"/>
<path d="M408.767 2134.58C407.2 2139.03 400.902 2139.03 399.335 2134.58L390.577 2109.7C389.432 2106.45 391.845 2103.04 395.293 2103.04H412.809C416.257 2103.04 418.67 2106.45 417.525 2109.7L408.767 2134.58Z" fill="#B366FF"/>
<path d="M371.038 2134.58C369.471 2139.03 363.173 2139.03 361.606 2134.58L352.848 2109.7C351.703 2106.45 354.116 2103.04 357.564 2103.04H375.08C378.528 2103.04 380.941 2106.45 379.796 2109.7L371.038 2134.58Z" fill="#B366FF"/>
<path d="M419.202 2068.44C400.613 2085.62 348.318 2082.01 323.564 2079.17C317.17 2078.44 311.766 2084.23 313.154 2090.51C314.074 2094.68 317.769 2097.65 322.037 2097.65H445.254C450.777 2097.65 455.254 2093.17 455.254 2087.65V1956.64C455.254 1953.9 454.129 1951.27 452.141 1949.39L381.87 1882.64C380.638 1881.47 379.129 1880.63 377.485 1880.21L335.837 1869.45C334.079 1869 332.231 1869.03 330.491 1869.54L299.517 1878.73C295.273 1879.99 292.362 1883.89 292.362 1888.32V1894.74C292.362 1901.21 298.408 1906.07 304.794 1905.05C326.111 1901.62 369.224 1897.71 388.78 1917.59C415.309 1944.55 460.781 2030.03 419.202 2068.44Z" fill="#F2E6FF"/>
<rect x="348.655" y="1932.27" width="50.3051" height="5.99194" rx="2.99597" transform="rotate(-180 348.655 1932.27)" fill="#F2E6FF"/>
<path d="M298.35 1943.65V1953.24C298.35 1953.24 350.596 1957.49 359.831 1948.27C367.263 1940.85 366.607 1900.51 366.607 1900.51H356.942C356.942 1900.51 361.678 1932.46 352.97 1940.37C344.263 1948.27 298.35 1943.65 298.35 1943.65Z" fill="#F2E6FF"/>
<path d="M381.294 1802.84L433.096 1847.18H475.316L379.797 1705.77L298.65 1843.89H332.186L381.294 1802.84Z" fill="#CC99FF"/>
<path d="M334.534 2045.12C341.873 2043.76 349.317 2039.22 353.187 2036.34C354.062 2035.69 354.588 2034.53 354.035 2033.59C352.459 2030.91 348.691 2036.2 342.068 2037.43C336.82 2038.4 320.742 2037.56 313.178 2036.23C311.584 2035.95 309.923 2036.8 309.376 2038.32L308.526 2040.69C307.899 2042.43 308.986 2044.32 310.822 2044.58C317.327 2045.5 327.615 2046.41 334.534 2045.12Z" fill="#F2E6FF"/>
<path fill-rule="evenodd" clip-rule="evenodd" d="M425.011 1682.84V1618.47C425.011 1617.6 426.046 1617.15 426.688 1617.73L475.727 1662.76C475.851 1662.87 476.001 1662.95 476.163 1662.99L524.861 1675.03C525.308 1675.14 525.621 1675.54 525.621 1676V1687.48L477.028 1727.46L470.893 1722.39L425.363 1683.6C425.14 1683.41 425.011 1683.14 425.011 1682.84Z" fill="#8000FF"/>
<path d="M533.704 1440.33H408.842V1539.48L485.234 1651.85H559.783V1584.43C559.783 1584.43 589.071 1577.02 585.862 1565.66C582.652 1554.29 559.783 1517.01 559.783 1517.01L533.704 1440.33Z" fill="#B366FF"/>
<path d="M531.182 1402.6C533.731 1398.54 539.978 1400.05 540.397 1404.82L542.511 1428.9C542.768 1431.83 540.465 1434.34 537.531 1434.34H520.293C516.361 1434.34 513.968 1430.01 516.059 1426.68L531.182 1402.6Z" fill="#B366FF"/>
<path d="M414.659 1402.6C412.11 1398.54 405.864 1400.05 405.444 1404.82L403.33 1428.9C403.074 1431.83 405.377 1434.34 408.311 1434.34H425.549C429.481 1434.34 431.874 1430.01 429.783 1426.68L414.659 1402.6Z" fill="#B366FF"/>
<path d="M449.34 1403.4C450.908 1398.95 457.205 1398.95 458.773 1403.4L467.531 1428.28C468.675 1431.53 466.262 1434.94 462.814 1434.94H445.299C441.851 1434.94 439.438 1431.53 440.582 1428.28L449.34 1403.4Z" fill="#B366FF"/>
<path d="M487.069 1403.4C488.636 1398.95 494.934 1398.95 496.502 1403.4L505.259 1428.28C506.404 1431.53 503.991 1434.94 500.543 1434.94H483.028C479.58 1434.94 477.166 1431.53 478.311 1428.28L487.069 1403.4Z" fill="#B366FF"/>
<path d="M438.905 1469.54C457.494 1452.36 509.789 1455.97 534.543 1458.81C540.938 1459.54 546.341 1453.75 544.953 1447.47C544.033 1443.3 540.338 1440.33 536.07 1440.33H412.853C407.33 1440.33 402.853 1444.81 402.853 1450.33V1581.34C402.853 1584.08 403.979 1586.71 405.966 1588.59L476.237 1655.34C477.469 1656.51 478.978 1657.34 480.623 1657.77L522.271 1668.53C524.028 1668.98 525.876 1668.95 527.617 1668.44L558.59 1659.24C562.835 1657.99 565.746 1654.09 565.746 1649.66V1643.24C565.746 1636.77 559.7 1631.91 553.313 1632.93C531.996 1636.36 488.883 1640.27 469.328 1620.39C442.798 1593.43 397.327 1507.95 438.905 1469.54Z" fill="#F2E6FF"/>
<rect x="509.452" y="1605.71" width="50.3051" height="5.99194" rx="2.99597" fill="#F2E6FF"/>
<path d="M559.757 1594.32V1584.74C559.757 1584.74 507.512 1580.49 498.276 1589.71C490.844 1597.13 491.501 1637.47 491.501 1637.47H501.165C501.165 1637.47 496.429 1605.51 505.137 1597.61C513.844 1589.71 559.757 1594.32 559.757 1594.32Z" fill="#F2E6FF"/>
<path d="M476.814 1735.14L425.011 1690.8H382.791L478.311 1832.2L559.458 1694.09H525.921L476.814 1735.14Z" fill="#CC99FF"/>
<path d="M523.573 1492.86C516.234 1494.22 508.79 1498.76 504.92 1501.64C504.045 1502.29 503.519 1503.45 504.072 1504.39C505.649 1507.07 509.416 1501.78 516.04 1500.55C521.287 1499.58 537.365 1500.42 544.929 1501.75C546.523 1502.03 548.185 1501.18 548.732 1499.66L549.581 1497.29C550.208 1495.55 549.121 1493.66 547.285 1493.4C540.781 1492.48 530.492 1491.57 523.573 1492.86Z" fill="#F2E6FF"/>
<rect x="20" y="2386" width="822" height="1122" rx="20" fill="#1A0033"/>
<g clip-path="url(#clip2_5_91)">
<path d="M159.971 2568.17C152.718 2568.17 146.958 2566.21 142.691 2562.28C138.51 2558.35 136.419 2553.15 136.419 2546.66C124.558 2545.73 115.342 2541.33 108.771 2533.48C102.2 2525.63 98.915 2514.96 98.915 2501.48C98.915 2492.01 100.579 2483.86 103.907 2477.03C107.235 2470.21 112.056 2465 118.371 2461.42C124.686 2457.83 132.238 2456.04 141.027 2456.04C149.816 2456.04 157.368 2457.83 163.683 2461.42C169.998 2465 174.819 2470.21 178.147 2477.03C181.475 2483.86 183.139 2492.01 183.139 2501.48C183.139 2515.39 179.64 2526.31 172.643 2534.25C165.646 2542.18 155.875 2546.41 143.331 2546.92C143.331 2552.04 144.91 2555.88 148.067 2558.44C151.31 2561 155.619 2562.28 160.995 2562.28C166.542 2562.28 171.363 2560.91 175.459 2558.18C175.8 2557.93 176.099 2557.8 176.355 2557.8C176.696 2557.8 176.995 2558.06 177.251 2558.57L179.043 2561.38C179.214 2561.64 179.299 2561.94 179.299 2562.28C179.299 2562.79 179 2563.18 178.403 2563.43C175.416 2565.14 172.472 2566.33 169.571 2567.02C166.755 2567.78 163.555 2568.17 159.971 2568.17ZM141.027 2541.03C152.206 2541.03 160.91 2537.66 167.139 2530.92C173.368 2524.09 176.483 2514.28 176.483 2501.48C176.483 2488.68 173.368 2478.91 167.139 2472.17C160.91 2465.34 152.206 2461.93 141.027 2461.93C129.848 2461.93 121.144 2465.34 114.915 2472.17C108.686 2478.91 105.571 2488.68 105.571 2501.48C105.571 2514.28 108.686 2524.09 114.915 2530.92C121.144 2537.66 129.848 2541.03 141.027 2541.03Z" fill="#B366FF"/>
<path d="M140.798 2604.5C130.618 2594.32 114.113 2594.32 103.933 2604.5C93.7526 2614.68 93.7526 2631.18 103.933 2641.36L137.112 2674.54C139.148 2676.58 142.449 2676.58 144.485 2674.54L177.664 2641.36L177.66 2641.36C187.474 2631.15 187.352 2614.92 177.295 2604.87C167.238 2594.81 151.008 2594.69 140.802 2604.5L140.798 2604.5Z" fill="#B366FF"/>
<path d="M694.029 3321.83C701.282 3321.83 707.042 3323.79 711.309 3327.72C715.49 3331.65 717.581 3336.85 717.581 3343.34C729.442 3344.27 738.658 3348.67 745.229 3356.52C751.8 3364.37 755.085 3375.04 755.085 3388.52C755.085 3397.99 753.421 3406.14 750.093 3412.97C746.765 3419.79 741.944 3425 735.629 3428.58C729.314 3432.17 721.762 3433.96 712.973 3433.96C704.184 3433.96 696.632 3432.17 690.317 3428.58C684.002 3425 679.181 3419.79 675.853 3412.97C672.525 3406.14 670.861 3397.99 670.861 3388.52C670.861 3374.61 674.36 3363.69 681.357 3355.75C688.354 3347.82 698.125 3343.59 710.669 3343.08C710.669 3337.96 709.09 3334.12 705.933 3331.56C702.69 3329 698.381 3327.72 693.005 3327.72C687.458 3327.72 682.637 3329.09 678.541 3331.82C678.2 3332.07 677.901 3332.2 677.645 3332.2C677.304 3332.2 677.005 3331.94 676.749 3331.43L674.957 3328.62C674.786 3328.36 674.701 3328.06 674.701 3327.72C674.701 3327.21 675 3326.82 675.597 3326.57C678.584 3324.86 681.528 3323.67 684.429 3322.98C687.245 3322.22 690.445 3321.83 694.029 3321.83ZM712.973 3348.97C701.794 3348.97 693.09 3352.34 686.861 3359.08C680.632 3365.91 677.517 3375.72 677.517 3388.52C677.517 3401.32 680.632 3411.09 686.861 3417.83C693.09 3424.66 701.794 3428.07 712.973 3428.07C724.152 3428.07 732.856 3424.66 739.085 3417.83C745.314 3411.09 748.429 3401.32 748.429 3388.52C748.429 3375.72 745.314 3365.91 739.085 3359.08C732.856 3352.34 724.152 3348.97 712.973 3348.97Z" fill="#B366FF"/>
<path d="M713.202 3285.5C723.382 3295.68 739.887 3295.68 750.067 3285.5C760.247 3275.32 760.247 3258.82 750.067 3248.64L716.888 3215.46C714.852 3213.42 711.551 3213.42 709.515 3215.46L676.336 3248.64L676.34 3248.64C666.526 3258.85 666.648 3275.08 676.705 3285.13C686.762 3295.19 702.992 3295.31 713.198 3285.5L713.202 3285.5Z" fill="#B366FF"/>
</g>
<path d="M537.951 2874.24C528.178 2846.17 549.448 2833.41 537.951 2830.91C526.455 2828.41 499.021 2806.05 492.489 2801.37C485.957 2796.69 498.864 2825.05 499.282 2836.08C499.7 2847.11 490.922 2870.38 486.48 2880.64C503.985 2905.99 542.341 2886.84 537.951 2874.24Z" fill="#8000FF"/>
<path d="M484.909 2888.12C518.956 2911.12 534.324 2891.02 538.886 2882.69C539.78 2881.05 541.89 2880.33 543.537 2881.2C559.612 2889.68 571.485 2889.54 579.454 2887.14C582.589 2886.19 588.708 2890.58 587.738 2893.71C575.795 2932.19 540.972 3034.15 512.4 3016.01C487.036 2999.9 444.866 2910.82 436.979 2893.81C436.264 2892.27 436.983 2890.48 438.584 2889.91C447.02 2886.9 471.8 2879.26 484.909 2888.12Z" fill="#CC99FF"/>
<path d="M535.715 2645.76C507.662 2632.01 476.664 2640.36 461.96 2648.15C460.673 2648.84 459.082 2648.57 458.134 2647.47L445.191 2632.4C443.005 2629.85 446.011 2626.18 448.936 2627.83L454.575 2631C456.724 2632.2 459.332 2630.45 459.02 2628L457.687 2617.55C457.332 2614.76 460.664 2613.06 462.715 2614.99L472.671 2624.32C474.522 2626.06 477.557 2624.85 477.717 2622.32L478.401 2611.48C478.573 2608.75 482.013 2607.66 483.731 2609.79L493.579 2622.01C495.154 2623.96 498.289 2623.23 498.841 2620.78L500.955 2611.4C501.635 2608.38 505.887 2608.24 506.76 2611.21L509.668 2621.11C510.364 2623.48 513.461 2624.04 514.944 2622.07L522.712 2611.74C524.443 2609.44 528.109 2610.66 528.109 2613.54V2622.37C528.109 2624.9 531.042 2626.29 533.002 2624.7L541.76 2617.57C544.027 2615.73 547.324 2617.89 546.544 2620.7L540.127 2643.86C539.607 2645.73 537.463 2646.62 535.715 2645.76Z" fill="#B366FF"/>
<path d="M552.953 2668.77H452.965L445.112 2735.17C445.112 2735.17 470.698 2777.97 500.603 2802.78C518.14 2817.33 567.12 2846.19 572.322 2820.38C574.657 2808.8 577.056 2764.52 577.056 2764.52C577.056 2764.52 592.582 2763.64 590.684 2757.61C588.785 2751.58 583.091 2749.75 577.056 2721.18C571.021 2692.62 552.953 2668.77 552.953 2668.77Z" fill="#B366FF"/>
<path d="M454.276 2656.19C509.439 2631.35 538.162 2651.09 549.678 2663.61C552.517 2666.69 549.736 2670.87 545.553 2670.61C514.732 2668.65 481.389 2682.63 474.96 2686.59C464.749 2692.88 474.96 2758.4 494.596 2807.14C507.164 2830.47 532.717 2901.28 513.447 2908.82C495.278 2915.94 451.087 2921.28 430.735 2916.6C428.654 2916.12 427.309 2914.2 427.309 2912.07V2745.38C427.309 2745.32 427.309 2745.32 427.308 2745.26C427.247 2743.4 425.03 2669.36 454.276 2656.19Z" fill="#F2E6FF"/>
<path d="M575.236 2792.73L574.713 2801.11C567.304 2802.29 551.725 2798.26 546.87 2797.55C542.016 2796.85 541.249 2797.32 541.505 2796.61C541.76 2795.91 541.249 2797.55 546.359 2795.68C551.469 2793.8 569.871 2791.56 575.236 2792.73Z" fill="#F2E6FF"/>
<path d="M553.183 2708.08C548.48 2708 542.946 2709.61 539.659 2710.71C538.48 2711.11 538.011 2712.32 539.251 2712.42C542.469 2712.65 549.942 2710.46 553.968 2711.39C558.746 2712.5 564.068 2716.17 567.638 2715.83C568.336 2715.77 568.803 2715.15 568.919 2714.46C569.06 2713.62 568.66 2712.78 567.9 2712.4C564.463 2710.66 558.317 2708.17 553.183 2708.08Z" fill="#F2E6FF"/>
<path d="M369.754 3037.01C379.528 3065.08 358.258 3077.84 369.754 3080.34C381.251 3082.84 408.685 3105.2 415.217 3109.88C421.749 3114.56 408.841 3086.2 408.423 3075.17C408.005 3064.14 416.784 3040.87 421.226 3030.61C403.72 3005.26 365.365 3024.41 369.754 3037.01Z" fill="#8000FF"/>
<path d="M422.797 3023.13C388.75 3000.13 373.382 3020.23 368.82 3028.56C367.926 3030.19 365.815 3030.92 364.169 3030.05C348.094 3021.57 336.221 3021.71 328.252 3024.11C325.117 3025.05 318.997 3020.66 319.968 3017.54C331.911 2979.06 366.734 2877.1 395.306 2895.24C420.67 2911.34 462.84 3000.43 470.727 3017.44C471.442 3018.98 470.723 3020.77 469.122 3021.34C460.686 3024.35 435.905 3031.98 422.797 3023.13Z" fill="#CC99FF"/>
<path d="M371.991 3265.48C400.043 3279.24 431.042 3270.89 445.746 3263.09C447.032 3262.41 448.623 3262.68 449.572 3263.78L462.515 3278.85C464.701 3281.4 461.695 3285.06 458.769 3283.42L453.131 3280.25C450.982 3279.05 448.374 3280.8 448.686 3283.25L450.018 3293.69C450.374 3296.48 447.042 3298.19 444.991 3296.26L435.035 3286.93C433.184 3285.19 430.148 3286.4 429.989 3288.93L429.305 3299.77C429.132 3302.5 425.693 3303.59 423.975 3301.46L414.127 3289.24C412.552 3287.29 409.416 3288.02 408.865 3290.47L406.751 3299.85C406.07 3302.87 401.818 3303.01 400.946 3300.04L398.037 3290.14C397.342 3287.77 394.245 3287.21 392.762 3289.18L384.994 3299.51C383.262 3301.81 379.597 3300.59 379.597 3297.7V3288.88C379.597 3286.35 376.664 3284.96 374.704 3286.55L365.946 3293.67C363.679 3295.52 360.382 3293.36 361.162 3290.55L367.579 3267.39C368.098 3265.52 370.243 3264.63 371.991 3265.48Z" fill="#B366FF"/>
<path d="M354.753 3242.48H454.741L462.593 3176.07C462.593 3176.07 437.008 3133.28 407.103 3108.47C389.566 3093.92 340.586 3065.06 335.384 3090.87C333.049 3102.45 330.65 3146.72 330.65 3146.72C330.65 3146.72 315.123 3147.61 317.022 3153.64C318.921 3159.66 324.615 3161.5 330.65 3190.06C336.684 3218.63 354.753 3242.48 354.753 3242.48Z" fill="#B366FF"/>
<path d="M453.43 3255.06C398.267 3279.89 369.543 3260.16 358.027 3247.64C355.189 3244.56 357.97 3240.38 362.153 3240.64C392.974 3242.6 426.317 3228.62 432.746 3224.66C442.957 3218.37 432.746 3152.85 413.11 3104.11C400.542 3080.78 374.989 3009.97 394.259 3002.43C412.427 2995.31 456.618 2989.96 476.971 2994.65C479.052 2995.13 480.397 2997.05 480.397 2999.18L480.397 3165.87C480.397 3165.92 480.396 3165.93 480.398 3165.99C480.458 3167.84 482.676 3241.89 453.43 3255.06Z" fill="#F2E6FF"/>
<path d="M332.469 3118.52L332.993 3110.13C340.402 3108.96 355.981 3112.99 360.835 3113.7C365.69 3114.4 366.456 3113.93 366.201 3114.63C365.945 3115.34 366.456 3113.7 361.346 3115.57C356.237 3117.45 337.834 3119.69 332.469 3118.52Z" fill="#F2E6FF"/>
<path d="M354.523 3203.17C359.226 3203.25 364.759 3201.64 368.047 3200.54C369.225 3200.14 369.694 3198.92 368.454 3198.83C365.236 3198.6 357.763 3200.79 353.738 3199.86C348.96 3198.75 343.637 3195.08 340.068 3195.42C339.37 3195.48 338.903 3196.1 338.787 3196.79C338.646 3197.63 339.046 3198.47 339.806 3198.85C343.243 3200.59 349.389 3203.08 354.523 3203.17Z" fill="#F2E6FF"/>
<rect x="20" y="3569" width="822" height="1122" rx="20" fill="#1A0033"/>
<g clip-path="url(#clip3_5_91)">
<path d="M137.487 3729.92C129.039 3729.92 122.17 3728.3 116.879 3725.06C115.94 3724.54 115.727 3723.86 116.239 3723.01L118.031 3720.19C118.287 3719.68 118.586 3719.42 118.927 3719.42C119.183 3719.42 119.482 3719.55 119.823 3719.81C121.871 3721.17 124.346 3722.24 127.247 3723.01C130.234 3723.69 133.306 3724.03 136.463 3724.03C142.607 3724.03 147.172 3722.54 150.159 3719.55C153.231 3716.57 154.767 3712.04 154.767 3705.98V3643.9C154.767 3641.94 155.748 3640.96 157.711 3640.96H158.735C160.698 3640.96 161.679 3641.94 161.679 3643.9V3705.73C161.679 3712.98 159.588 3718.83 155.407 3723.26C151.311 3727.7 145.338 3729.92 137.487 3729.92Z" fill="#B366FF"/>
<path d="M140.798 3787.5C130.618 3777.32 114.113 3777.32 103.933 3787.5C93.7526 3797.68 93.7526 3814.18 103.933 3824.36L137.112 3857.54C139.148 3859.58 142.449 3859.58 144.485 3857.54L177.664 3824.36L177.66 3824.36C187.474 3814.15 187.352 3797.92 177.295 3787.87C167.238 3777.81 151.008 3777.69 140.802 3787.5L140.798 3787.5Z" fill="#B366FF"/>
<path d="M716.513 4526.08C724.961 4526.08 731.83 4527.7 737.121 4530.94C738.06 4531.46 738.273 4532.14 737.761 4532.99L735.969 4535.81C735.713 4536.32 735.414 4536.58 735.073 4536.58C734.817 4536.58 734.518 4536.45 734.177 4536.19C732.129 4534.83 729.654 4533.76 726.753 4532.99C723.766 4532.31 720.694 4531.97 717.537 4531.97C711.393 4531.97 706.828 4533.46 703.841 4536.45C700.769 4539.43 699.233 4543.96 699.233 4550.02V4612.1C699.233 4614.06 698.252 4615.04 696.289 4615.04H695.265C693.302 4615.04 692.321 4614.06 692.321 4612.1V4550.27C692.321 4543.02 694.412 4537.17 698.593 4532.74C702.689 4528.3 708.662 4526.08 716.513 4526.08Z" fill="#B366FF"/>
<path d="M713.202 4468.5C723.382 4478.68 739.887 4478.68 750.067 4468.5C760.247 4458.32 760.247 4441.82 750.067 4431.64L716.888 4398.46C714.852 4396.42 711.551 4396.42 709.515 4398.46L676.336 4431.64L676.34 4431.64C666.526 4441.85 666.648 4458.08 676.705 4468.13C686.762 4478.19 702.992 4478.31 713.198 4468.5L713.202 4468.5Z" fill="#B366FF"/>
</g>
<path d="M547.781 3809.13H457.673C446.628 3809.13 437.673 3818.08 437.673 3829.13V3901.72C437.673 3905.73 438.88 3909.65 441.137 3912.97L507.847 4011.04C511.571 4016.52 517.763 4019.8 524.384 4019.8H568.089C579.135 4019.8 588.089 4010.84 588.089 3999.8V3958.42C588.089 3951.91 592.14 3946.08 598.244 3943.82C606.969 3940.58 610.925 3930.46 606.711 3922.16L588.733 3886.76C588.305 3885.92 587.936 3885.05 587.632 3884.15L566.715 3822.69C563.956 3814.58 556.344 3809.13 547.781 3809.13Z" fill="#B366FF"/>
<path d="M555.539 3976.8C555.539 3975.14 556.835 3973.77 558.491 3973.68L583.255 3972.3C585.705 3972.17 587.765 3974.12 587.765 3976.57C587.765 3978.99 585.754 3980.93 583.334 3980.84L558.548 3979.92C556.869 3979.86 555.539 3978.48 555.539 3976.8Z" fill="#F2E6FF"/>
<path d="M560.91 3802.86H437.673L424.984 3779.15C422.489 3774.49 425.868 3768.85 431.156 3768.85H565.116C570.167 3768.85 573.555 3774.03 571.526 3778.66L560.91 3802.86Z" fill="#B366FF"/>
<path d="M564.789 3809.13L570.16 3829.72H491.968C482.568 3829.72 474.437 3836.26 472.429 3845.45L460.216 3901.31C459.909 3902.71 459.755 3904.15 459.755 3905.58V3999.8C459.755 4010.84 450.8 4019.8 439.755 4019.8H380.442C367.124 4019.8 357.526 4007.02 361.232 3994.23L386.973 3905.39C387.352 3904.08 387.864 3902.82 388.501 3901.61L437.375 3809.13H564.789Z" fill="#F2E6FF"/>
<path fill-rule="evenodd" clip-rule="evenodd" d="M548.99 3869.41C548.69 3869.41 548.405 3869.54 548.215 3869.77L544.105 3874.81C543.427 3875.65 544.357 3876.82 545.321 3876.34L548.307 3874.88C548.444 3874.81 548.595 3874.78 548.748 3874.78H573.144C574.627 3874.78 575.83 3873.57 575.83 3872.09C575.83 3870.61 574.627 3869.41 573.144 3869.41H548.99Z" fill="#F2E6FF"/>
<path d="M510.183 4025.47L464.827 3961.01V4073.81H546.289L537.635 4025.47H510.183Z" fill="#8000FF"/>
<path d="M457.666 4083.65V4050.23H411.415L460.277 4213.15H509.139H558.001L606.863 4050.23H548.974L555.241 4083.65H457.666Z" fill="#CC99FF"/>
<path d="M313.541 4451.87H403.649C414.695 4451.87 423.649 4442.92 423.649 4431.87V4359.28C423.649 4355.27 422.442 4351.35 420.186 4348.03L353.475 4249.96C349.751 4244.48 343.559 4241.2 336.938 4241.2H293.233C282.187 4241.2 273.233 4250.16 273.233 4261.2V4302.58C273.233 4309.09 269.182 4314.92 263.078 4317.18C254.353 4320.42 250.397 4330.54 254.611 4338.84L272.589 4374.24C273.018 4375.08 273.386 4375.95 273.691 4376.85L294.608 4438.31C297.366 4446.42 304.979 4451.87 313.541 4451.87Z" fill="#B366FF"/>
<path d="M305.784 4284.2C305.784 4285.86 304.488 4287.23 302.832 4287.32L278.067 4288.7C275.618 4288.83 273.557 4286.88 273.557 4284.43C273.557 4282.01 275.568 4280.07 277.989 4280.16L302.774 4281.08C304.454 4281.14 305.784 4282.52 305.784 4284.2Z" fill="#F2E6FF"/>
<path d="M300.413 4458.14H423.649L436.338 4481.85C438.833 4486.51 435.455 4492.15 430.166 4492.15H296.207C291.156 4492.15 287.767 4486.97 289.796 4482.34L300.413 4458.14Z" fill="#B366FF"/>
<path d="M296.533 4451.87L291.162 4431.28H369.355C378.754 4431.28 386.886 4424.73 388.893 4415.55L401.106 4359.69C401.413 4358.28 401.568 4356.85 401.568 4355.42V4261.2C401.568 4250.16 410.522 4241.2 421.568 4241.2H480.88C494.199 4241.2 503.797 4253.98 500.09 4266.77L474.349 4355.61C473.97 4356.92 473.458 4358.18 472.822 4359.39L423.947 4451.87H296.533Z" fill="#F2E6FF"/>
<path fill-rule="evenodd" clip-rule="evenodd" d="M312.332 4391.59C312.633 4391.59 312.917 4391.46 313.107 4391.23L317.217 4386.19C317.895 4385.35 316.965 4384.18 316.002 4384.66L313.015 4386.12C312.878 4386.19 312.728 4386.22 312.575 4386.22H288.178C286.695 4386.22 285.493 4387.43 285.493 4388.91C285.493 4390.39 286.695 4391.59 288.178 4391.59H312.332Z" fill="#F2E6FF"/>
<path d="M351.139 4235.53L396.495 4299.99V4187.19H315.034L323.687 4235.53H351.139Z" fill="#8000FF"/>
<path d="M403.657 4177.35V4210.77H449.908L401.046 4047.84H352.184H303.322L254.46 4210.77H312.348L306.082 4177.35H403.657Z" fill="#CC99FF"/>
<rect x="20" y="4752" width="822" height="1122" rx="20" fill="#1A0033"/>
<g clip-path="url(#clip4_5_91)">
<path d="M114.359 4911C112.396 4911 111.415 4910.02 111.415 4908.06V4903.96C111.415 4898.41 113.762 4892.87 118.455 4887.32C123.148 4881.77 129.762 4876.87 138.295 4872.6C144.866 4869.36 149.943 4866.5 153.527 4864.02C157.111 4861.46 159.714 4858.73 161.335 4855.83C163.042 4852.93 163.895 4849.39 163.895 4845.21C163.895 4839.49 161.719 4835.18 157.367 4832.28C153.1 4829.38 147.682 4827.93 141.111 4827.93C131.298 4827.93 123.575 4829.72 117.943 4833.3C117.516 4833.56 117.218 4833.69 117.047 4833.69C116.706 4833.69 116.407 4833.43 116.151 4832.92L114.487 4830.1C114.316 4829.85 114.231 4829.55 114.231 4829.21C114.231 4828.78 114.53 4828.4 115.127 4828.06C117.687 4826.26 121.271 4824.81 125.879 4823.7C130.572 4822.59 135.65 4822.04 141.111 4822.04C146.658 4822.04 151.65 4822.94 156.087 4824.73C160.524 4826.52 164.023 4829.17 166.583 4832.66C169.228 4836.16 170.551 4840.34 170.551 4845.21C170.551 4850.24 169.484 4854.59 167.351 4858.26C165.218 4861.93 162.231 4865.18 158.391 4867.99C154.551 4870.81 149.559 4873.71 143.415 4876.7C135.138 4880.79 128.866 4885.23 124.599 4890.01C120.418 4894.7 118.327 4899.61 118.327 4904.73H166.583C168.546 4904.73 169.527 4905.67 169.527 4907.54V4908.44C169.527 4909.38 169.271 4910.06 168.759 4910.49C168.332 4910.83 167.607 4911 166.583 4911H114.359Z" fill="#B366FF"/>
<path d="M140.798 4970.5C130.618 4960.32 114.113 4960.32 103.933 4970.5C93.7526 4980.68 93.7526 4997.18 103.933 5007.36L137.112 5040.54C139.148 5042.58 142.449 5042.58 144.485 5040.54L177.664 5007.36L177.66 5007.36C187.474 4997.15 187.352 4980.92 177.295 4970.87C167.238 4960.81 151.008 4960.69 140.802 4970.5L140.798 4970.5Z" fill="#B366FF"/>
<path d="M739.641 5711C741.604 5711 742.585 5711.98 742.585 5713.94V5718.04C742.585 5723.59 740.238 5729.13 735.545 5734.68C730.852 5740.23 724.238 5745.13 715.705 5749.4C709.134 5752.64 704.057 5755.5 700.473 5757.98C696.889 5760.54 694.286 5763.27 692.665 5766.17C690.958 5769.07 690.105 5772.61 690.105 5776.79C690.105 5782.51 692.281 5786.82 696.633 5789.72C700.9 5792.62 706.318 5794.07 712.889 5794.07C722.702 5794.07 730.425 5792.28 736.057 5788.7C736.484 5788.44 736.782 5788.31 736.953 5788.31C737.294 5788.31 737.593 5788.57 737.849 5789.08L739.513 5791.9C739.684 5792.15 739.769 5792.45 739.769 5792.79C739.769 5793.22 739.47 5793.6 738.873 5793.94C736.313 5795.74 732.729 5797.19 728.121 5798.3C723.428 5799.41 718.35 5799.96 712.889 5799.96C707.342 5799.96 702.35 5799.06 697.913 5797.27C693.476 5795.48 689.977 5792.83 687.417 5789.34C684.772 5785.84 683.449 5781.66 683.449 5776.79C683.449 5771.76 684.516 5767.41 686.649 5763.74C688.782 5760.07 691.769 5756.82 695.609 5754.01C699.449 5751.19 704.441 5748.29 710.585 5745.3C718.862 5741.21 725.134 5736.77 729.401 5731.99C733.582 5727.3 735.673 5722.39 735.673 5717.27H687.417C685.454 5717.27 684.473 5716.33 684.473 5714.46V5713.56C684.473 5712.62 684.729 5711.94 685.241 5711.51C685.668 5711.17 686.393 5711 687.417 5711H739.641Z" fill="#B366FF"/>
<path d="M713.202 5651.5C723.382 5661.68 739.887 5661.68 750.067 5651.5C760.247 5641.32 760.247 5624.82 750.067 5614.64L716.888 5581.46C714.852 5579.42 711.551 5579.42 709.515 5581.46L676.336 5614.64L676.34 5614.64C666.526 5624.85 666.648 5641.08 676.705 5651.13C686.762 5661.19 702.992 5661.31 713.198 5651.5L713.202 5651.5Z" fill="#B366FF"/>
</g>
<path d="M381.124 5328.75L348.156 5361.71C347.682 5362.19 346.914 5362.19 346.44 5361.71L313.261 5328.53C304.643 5319.92 304.643 5305.94 313.261 5297.33C321.879 5288.71 335.852 5288.71 344.47 5297.33L344.473 5297.33L347.247 5300.1L350.074 5297.38C358.713 5289.08 372.453 5289.18 380.966 5297.69C389.48 5306.21 389.583 5319.95 381.277 5328.59L381.124 5328.75Z" stroke="#B366FF" stroke-width="8"/>
<path d="M549.124 5328.75L516.156 5361.71C515.682 5362.19 514.914 5362.19 514.44 5361.71L481.261 5328.53C472.643 5319.92 472.643 5305.94 481.261 5297.33C489.879 5288.71 503.852 5288.71 512.47 5297.33L512.473 5297.33L515.247 5300.1L518.074 5297.38C526.713 5289.08 540.453 5289.18 548.966 5297.69C557.48 5306.21 557.583 5319.95 549.277 5328.59L549.124 5328.75Z" stroke="#B366FF" stroke-width="8"/>
<rect x="20" y="5935" width="822" height="1122" rx="20" fill="#1A0033"/>
<g clip-path="url(#clip5_5_91)">
<path d="M139.787 6095.92C133.643 6095.92 128.181 6095.41 123.403 6094.38C118.624 6093.36 114.699 6091.87 111.627 6089.9C111.115 6089.56 110.816 6089.26 110.731 6089.01C110.645 6088.75 110.731 6088.37 110.987 6087.86L112.651 6085.04C112.907 6084.53 113.205 6084.27 113.547 6084.27C113.717 6084.27 114.016 6084.4 114.443 6084.66C120.587 6088.24 128.907 6090.03 139.403 6090.03C147.851 6090.03 154.165 6088.2 158.347 6084.53C162.613 6080.86 164.747 6075.99 164.747 6069.94C164.747 6063.79 162.955 6059.27 159.371 6056.37C155.787 6053.38 150.411 6051.89 143.243 6051.89H132.107C130.144 6051.89 129.163 6050.95 129.163 6049.07V6048.18C129.163 6047.24 129.376 6046.6 129.803 6046.26C130.315 6045.83 131.083 6045.62 132.107 6045.62H144.139C149.941 6045.62 154.336 6043.95 157.323 6040.62C160.395 6037.21 161.931 6033.11 161.931 6028.34C161.931 6022.53 159.925 6018.18 155.915 6015.28C151.904 6012.38 146.187 6010.93 138.763 6010.93C134.155 6010.93 129.931 6011.44 126.091 6012.46C122.251 6013.4 119.051 6014.68 116.491 6016.3C116.149 6016.56 115.851 6016.69 115.595 6016.69C115.253 6016.69 114.955 6016.43 114.699 6015.92L113.035 6013.1C112.864 6012.85 112.779 6012.55 112.779 6012.21C112.779 6011.78 113.077 6011.4 113.675 6011.06C116.235 6009.26 119.819 6007.81 124.427 6006.7C129.035 6005.59 133.984 6005.04 139.275 6005.04C148.32 6005.04 155.445 6007.17 160.651 6011.44C165.941 6015.71 168.587 6021.34 168.587 6028.34C168.587 6032.69 167.435 6036.74 165.131 6040.5C162.827 6044.25 159.584 6046.98 155.403 6048.69C161.035 6050.39 165.088 6053 167.562 6056.5C170.123 6059.99 171.403 6064.47 171.403 6069.94C171.403 6074.97 170.165 6079.45 167.691 6083.38C165.301 6087.3 161.717 6090.37 156.939 6092.59C152.245 6094.81 146.528 6095.92 139.787 6095.92Z" fill="#B366FF"/>
<path d="M140.798 6153.5C130.618 6143.32 114.113 6143.32 103.933 6153.5C93.7526 6163.68 93.7526 6180.18 103.933 6190.36L137.112 6223.54C139.148 6225.58 142.449 6225.58 144.485 6223.54L177.664 6190.36L177.66 6190.36C187.474 6180.15 187.352 6163.92 177.295 6153.87C167.238 6143.81 151.008 6143.69 140.802 6153.5L140.798 6153.5Z" fill="#B366FF"/>
<path d="M714.213 6892.08C720.357 6892.08 725.819 6892.59 730.597 6893.62C735.376 6894.64 739.301 6896.13 742.373 6898.1C742.885 6898.44 743.184 6898.74 743.269 6898.99C743.355 6899.25 743.269 6899.63 743.013 6900.14L741.349 6902.96C741.093 6903.47 740.795 6903.73 740.453 6903.73C740.283 6903.73 739.984 6903.6 739.557 6903.34C733.413 6899.76 725.093 6897.97 714.597 6897.97C706.149 6897.97 699.835 6899.8 695.653 6903.47C691.387 6907.14 689.253 6912.01 689.253 6918.06C689.253 6924.21 691.045 6928.73 694.629 6931.63C698.213 6934.62 703.589 6936.11 710.757 6936.11H721.893C723.856 6936.11 724.837 6937.05 724.837 6938.93V6939.82C724.837 6940.76 724.624 6941.4 724.197 6941.74C723.685 6942.17 722.917 6942.38 721.893 6942.38H709.861C704.059 6942.38 699.664 6944.05 696.677 6947.38C693.605 6950.79 692.069 6954.89 692.069 6959.66C692.069 6965.47 694.075 6969.82 698.085 6972.72C702.096 6975.62 707.813 6977.07 715.237 6977.07C719.845 6977.07 724.069 6976.56 727.909 6975.54C731.749 6974.6 734.949 6973.32 737.509 6971.7C737.851 6971.44 738.149 6971.31 738.405 6971.31C738.747 6971.31 739.045 6971.57 739.301 6972.08L740.965 6974.9C741.136 6975.15 741.221 6975.45 741.221 6975.79C741.221 6976.22 740.923 6976.6 740.325 6976.94C737.765 6978.74 734.181 6980.19 729.573 6981.3C724.965 6982.41 720.016 6982.96 714.725 6982.96C705.68 6982.96 698.555 6980.83 693.349 6976.56C688.059 6972.29 685.413 6966.66 685.413 6959.66C685.413 6955.31 686.565 6951.26 688.869 6947.5C691.173 6943.75 694.416 6941.02 698.597 6939.31C692.965 6937.61 688.912 6935 686.438 6931.5C683.877 6928.01 682.597 6923.53 682.597 6918.06C682.597 6913.03 683.835 6908.55 686.309 6904.62C688.699 6900.7 692.283 6897.63 697.061 6895.41C701.755 6893.19 707.472 6892.08 714.213 6892.08Z" fill="#B366FF"/>
<path d="M713.202 6834.5C723.382 6844.68 739.887 6844.68 750.067 6834.5C760.247 6824.32 760.247 6807.82 750.067 6797.64L716.888 6764.46C714.852 6762.42 711.551 6762.42 709.515 6764.46L676.336 6797.64L676.34 6797.64C666.526 6807.85 666.648 6824.08 676.705 6834.13C686.762 6844.19 702.992 6844.31 713.198 6834.5L713.202 6834.5Z" fill="#B366FF"/>
</g>
<path d="M381.124 6592.75L348.156 6625.71C347.682 6626.19 346.914 6626.19 346.44 6625.71L313.261 6592.53C304.643 6583.92 304.643 6569.94 313.261 6561.33C321.879 6552.71 335.852 6552.71 344.47 6561.33L344.473 6561.33L347.247 6564.1L350.074 6561.38C358.713 6553.08 372.453 6553.18 380.966 6561.69C389.48 6570.21 389.583 6583.95 381.277 6592.59L381.124 6592.75Z" stroke="#B366FF" stroke-width="8"/>
<path d="M549.124 6592.75L516.156 6625.71C515.682 6626.19 514.914 6626.19 514.44 6625.71L481.261 6592.53C472.643 6583.92 472.643 6569.94 481.261 6561.33C489.879 6552.71 503.852 6552.71 512.47 6561.33L512.473 6561.33L515.247 6564.1L518.074 6561.38C526.713 6553.08 540.453 6553.18 548.966 6561.69C557.48 6570.21 557.583 6583.95 549.277 6592.59L549.124 6592.75Z" stroke="#B366FF" stroke-width="8"/>
<path d="M465.124 6430.75L432.156 6463.71C431.682 6464.19 430.914 6464.19 430.44 6463.71L397.261 6430.53C388.643 6421.92 388.643 6407.94 397.261 6399.33C405.879 6390.71 419.852 6390.71 428.47 6399.33L428.473 6399.33L431.247 6402.1L434.074 6399.38C442.713 6391.08 456.453 6391.18 464.966 6399.69C473.48 6408.21 473.583 6421.95 465.277 6430.59L465.124 6430.75Z" stroke="#B366FF" stroke-width="8"/>
<rect x="20" y="8301" width="822" height="1122" rx="20" fill="#1A0033"/>
<g clip-path="url(#clip6_5_91)">
<path d="M138.084 8461.92C132.537 8461.92 127.204 8461.37 122.084 8460.26C116.964 8459.15 113.124 8457.7 110.564 8455.9C110.052 8455.56 109.753 8455.26 109.668 8455.01C109.583 8454.75 109.668 8454.37 109.924 8453.86L111.588 8451.04C111.844 8450.53 112.143 8450.27 112.484 8450.27C112.655 8450.27 112.953 8450.4 113.38 8450.66C115.94 8452.28 119.396 8453.6 123.748 8454.62C128.185 8455.56 132.964 8456.03 138.084 8456.03C146.703 8456.03 153.487 8454.07 158.436 8450.14C163.385 8446.22 165.86 8440.46 165.86 8432.86C165.86 8424.25 163.684 8418.14 159.332 8414.56C154.98 8410.98 148.409 8409.18 139.62 8409.18C131.513 8409.18 124.559 8410.59 118.756 8413.41C118.073 8413.75 117.348 8413.92 116.58 8413.92C115.385 8413.92 114.361 8413.49 113.508 8412.64C112.74 8411.79 112.399 8410.68 112.484 8409.31L114.66 8375.9C114.66 8373.94 115.641 8372.96 117.604 8372.96H165.732C166.756 8372.96 167.481 8373.17 167.908 8373.6C168.42 8373.94 168.676 8374.58 168.676 8375.52V8376.42C168.676 8378.29 167.695 8379.23 165.732 8379.23H121.316L119.524 8406.75C122.596 8405.56 125.753 8404.7 128.996 8404.19C132.324 8403.59 136.335 8403.3 141.028 8403.3C150.756 8403.3 158.436 8405.73 164.068 8410.59C169.7 8415.46 172.516 8422.88 172.516 8432.86C172.516 8441.99 169.359 8449.12 163.044 8454.24C156.729 8459.36 148.409 8461.92 138.084 8461.92Z" fill="#B366FF"/>
<path d="M140.798 8519.5C130.618 8509.32 114.113 8509.32 103.933 8519.5C93.7526 8529.68 93.7526 8546.18 103.933 8556.36L137.112 8589.54C139.148 8591.58 142.449 8591.58 144.485 8589.54L177.664 8556.36L177.66 8556.36C187.474 8546.15 187.352 8529.92 177.295 8519.87C167.238 8509.81 151.008 8509.69 140.802 8519.5L140.798 8519.5Z" fill="#B366FF"/>
<path d="M715.916 9258.08C721.463 9258.08 726.796 9258.63 731.916 9259.74C737.036 9260.85 740.876 9262.3 743.436 9264.1C743.948 9264.44 744.247 9264.74 744.332 9264.99C744.417 9265.25 744.332 9265.63 744.076 9266.14L742.412 9268.96C742.156 9269.47 741.857 9269.73 741.516 9269.73C741.345 9269.73 741.047 9269.6 740.62 9269.34C738.06 9267.72 734.604 9266.4 730.252 9265.38C725.815 9264.44 721.036 9263.97 715.916 9263.97C707.297 9263.97 700.513 9265.93 695.564 9269.86C690.615 9273.78 688.14 9279.54 688.14 9287.14C688.14 9295.75 690.316 9301.86 694.668 9305.44C699.02 9309.02 705.591 9310.82 714.38 9310.82C722.487 9310.82 729.441 9309.41 735.244 9306.59C735.927 9306.25 736.652 9306.08 737.42 9306.08C738.615 9306.08 739.639 9306.51 740.492 9307.36C741.26 9308.21 741.601 9309.32 741.516 9310.69L739.34 9344.1C739.34 9346.06 738.359 9347.04 736.396 9347.04H688.268C687.244 9347.04 686.519 9346.83 686.092 9346.4C685.58 9346.06 685.324 9345.42 685.324 9344.48V9343.58C685.324 9341.71 686.305 9340.77 688.268 9340.77H732.684L734.476 9313.25C731.404 9314.44 728.247 9315.3 725.004 9315.81C721.676 9316.41 717.665 9316.7 712.972 9316.7C703.244 9316.7 695.564 9314.27 689.932 9309.41C684.3 9304.54 681.484 9297.12 681.484 9287.14C681.484 9278.01 684.641 9270.88 690.956 9265.76C697.271 9260.64 705.591 9258.08 715.916 9258.08Z" fill="#B366FF"/>
<path d="M713.202 9200.5C723.382 9210.68 739.887 9210.68 750.067 9200.5C760.247 9190.32 760.247 9173.82 750.067 9163.64L716.888 9130.46C714.852 9128.42 711.551 9128.42 709.515 9130.46L676.336 9163.64L676.34 9163.64C666.526 9173.85 666.648 9190.08 676.705 9200.13C686.762 9210.19 702.992 9210.31 713.198 9200.5L713.202 9200.5Z" fill="#B366FF"/>
</g>
<path d="M545.124 8958.75L512.156 8991.71C511.682 8992.19 510.914 8992.19 510.44 8991.71L477.261 8958.53C468.643 8949.92 468.643 8935.94 477.261 8927.33C485.879 8918.71 499.852 8918.71 508.47 8927.33L508.473 8927.33L511.247 8930.1L514.074 8927.38C522.713 8919.08 536.453 8919.18 544.966 8927.69C553.48 8936.21 553.583 8949.95 545.277 8958.59L545.124 8958.75Z" stroke="#B366FF" stroke-width="8"/>
<path d="M377.124 8958.75L344.156 8991.71C343.682 8992.19 342.914 8992.19 342.44 8991.71L309.261 8958.53C300.643 8949.92 300.643 8935.94 309.261 8927.33C317.879 8918.71 331.852 8918.71 340.47 8927.33L340.473 8927.33L343.247 8930.1L346.074 8927.38C354.713 8919.08 368.453 8919.18 376.966 8927.69C385.48 8936.21 385.583 8949.95 377.277 8958.59L377.124 8958.75Z" stroke="#B366FF" stroke-width="8"/>
<path d="M633.124 8796.75L600.156 8829.71C599.682 8830.19 598.914 8830.19 598.44 8829.71L565.261 8796.53C556.643 8787.92 556.643 8773.94 565.261 8765.33C573.879 8756.71 587.852 8756.71 596.47 8765.33L596.473 8765.33L599.247 8768.1L602.074 8765.38C610.713 8757.08 624.453 8757.18 632.966 8765.69C641.48 8774.21 641.583 8787.95 633.277 8796.59L633.124 8796.75Z" stroke="#B366FF" stroke-width="8"/>
<path d="M297.124 8796.75L264.156 8829.71C263.682 8830.19 262.914 8830.19 262.44 8829.71L229.261 8796.53C220.643 8787.92 220.643 8773.94 229.261 8765.33C237.879 8756.71 251.852 8756.71 260.47 8765.33L260.473 8765.33L263.247 8768.1L266.074 8765.38C274.713 8757.08 288.453 8757.18 296.966 8765.69C305.48 8774.21 305.583 8787.95 297.277 8796.59L297.124 8796.75Z" stroke="#B366FF" stroke-width="8"/>
<path d="M465.124 8796.75L432.156 8829.71C431.682 8830.19 430.914 8830.19 430.44 8829.71L397.261 8796.53C388.643 8787.92 388.643 8773.94 397.261 8765.33C405.879 8756.71 419.852 8756.71 428.47 8765.33L428.473 8765.33L431.247 8768.1L434.074 8765.38C442.713 8757.08 456.453 8757.18 464.966 8765.69C473.48 8774.21 473.583 8787.95 465.277 8796.59L465.124 8796.75Z" stroke="#B366FF" stroke-width="8"/>
<rect x="20" y="9484" width="822" height="1122" rx="20" fill="#1A0033"/>
<g clip-path="url(#clip7_5_91)">
<path d="M140.57 9644.92C130.586 9644.92 122.522 9641.85 116.378 9635.7C110.319 9629.56 107.29 9619.62 107.29 9605.88C107.29 9592.91 109.039 9582.58 112.538 9574.9C116.037 9567.14 120.474 9561.72 125.85 9558.65C131.226 9555.58 137.029 9554.04 143.258 9554.04C148.037 9554.04 152.346 9554.55 156.186 9555.58C160.111 9556.6 163.397 9558.01 166.042 9559.8C166.554 9560.14 166.853 9560.44 166.938 9560.7C167.023 9560.95 166.938 9561.34 166.682 9561.85L165.018 9564.66C164.762 9565.18 164.463 9565.43 164.122 9565.43C163.951 9565.43 163.653 9565.3 163.226 9565.05C157.85 9561.63 151.151 9559.93 143.13 9559.93C135.109 9559.93 128.623 9562.91 123.674 9568.89C118.81 9574.78 115.781 9583.22 114.586 9594.23C117.487 9590.14 121.242 9587.11 125.85 9585.14C130.458 9583.18 136.005 9582.2 142.49 9582.2C148.719 9582.2 154.266 9583.35 159.13 9585.66C163.994 9587.96 167.791 9591.37 170.522 9595.9C173.338 9600.33 174.746 9605.67 174.746 9611.9C174.746 9622.73 171.717 9630.97 165.658 9636.6C159.685 9642.15 151.322 9644.92 140.57 9644.92ZM140.57 9639.03C158.917 9639.03 168.09 9629.99 168.09 9611.9C168.09 9603.96 165.743 9598.03 161.05 9594.1C156.442 9590.18 149.871 9588.22 141.338 9588.22C137.327 9588.22 133.189 9589.11 128.922 9590.9C124.741 9592.61 121.242 9595.17 118.426 9598.58C115.61 9602 114.202 9606.05 114.202 9610.74C114.202 9620.22 116.677 9627.3 121.626 9631.99C126.575 9636.69 132.89 9639.03 140.57 9639.03Z" fill="#B366FF"/>
<path d="M140.798 9702.5C130.618 9692.32 114.113 9692.32 103.933 9702.5C93.7526 9712.68 93.7526 9729.18 103.933 9739.36L137.112 9772.54C139.148 9774.58 142.449 9774.58 144.485 9772.54L177.664 9739.36L177.66 9739.36C187.474 9729.15 187.352 9712.92 177.295 9702.87C167.238 9692.81 151.008 9692.69 140.802 9702.5L140.798 9702.5Z" fill="#B366FF"/>
<path d="M713.43 10441.1C723.414 10441.1 731.478 10444.2 737.622 10450.3C743.681 10456.4 746.71 10466.4 746.71 10480.1C746.71 10493.1 744.961 10503.4 741.462 10511.1C737.963 10518.9 733.526 10524.3 728.15 10527.4C722.774 10530.4 716.971 10532 710.742 10532C705.963 10532 701.654 10531.4 697.814 10530.4C693.889 10529.4 690.603 10528 687.958 10526.2C687.446 10525.9 687.147 10525.6 687.062 10525.3C686.977 10525 687.062 10524.7 687.318 10524.2L688.982 10521.3C689.238 10520.8 689.537 10520.6 689.878 10520.6C690.049 10520.6 690.347 10520.7 690.774 10521C696.15 10524.4 702.849 10526.1 710.87 10526.1C718.891 10526.1 725.377 10523.1 730.326 10517.1C735.19 10511.2 738.219 10502.8 739.414 10491.8C736.513 10495.9 732.758 10498.9 728.15 10500.9C723.542 10502.8 717.995 10503.8 711.51 10503.8C705.281 10503.8 699.734 10502.6 694.87 10500.3C690.006 10498 686.209 10494.6 683.478 10490.1C680.662 10485.7 679.254 10480.3 679.254 10474.1C679.254 10463.3 682.283 10455 688.342 10449.4C694.315 10443.9 702.678 10441.1 713.43 10441.1ZM713.43 10447C695.083 10447 685.91 10456 685.91 10474.1C685.91 10482 688.257 10488 692.95 10491.9C697.558 10495.8 704.129 10497.8 712.662 10497.8C716.673 10497.8 720.811 10496.9 725.078 10495.1C729.259 10493.4 732.758 10490.8 735.574 10487.4C738.39 10484 739.798 10479.9 739.798 10475.3C739.798 10465.8 737.323 10458.7 732.374 10454C727.425 10449.3 721.11 10447 713.43 10447Z" fill="#B366FF"/>
<path d="M713.202 10383.5C723.382 10393.7 739.887 10393.7 750.067 10383.5C760.247 10373.3 760.247 10356.8 750.067 10346.6L716.888 10313.5C714.852 10311.4 711.551 10311.4 709.515 10313.5L676.336 10346.6L676.34 10346.6C666.526 10356.8 666.648 10373.1 676.705 10383.1C686.762 10393.2 702.992 10393.3 713.198 10383.5L713.202 10383.5Z" fill="#B366FF"/>
</g>
<path d="M465.124 10141.7L432.156 10174.7C431.682 10175.2 430.914 10175.2 430.44 10174.7L397.261 10141.5C388.643 10132.9 388.643 10118.9 397.261 10110.3C405.879 10101.7 419.852 10101.7 428.47 10110.3L428.473 10110.3L431.247 10113.1L434.074 10110.4C442.713 10102.1 456.453 10102.2 464.966 10110.7C473.48 10119.2 473.583 10132.9 465.277 10141.6L465.124 10141.7Z" stroke="#B366FF" stroke-width="8"/>
<path d="M633.124 10141.7L600.156 10174.7C599.682 10175.2 598.914 10175.2 598.44 10174.7L565.261 10141.5C556.643 10132.9 556.643 10118.9 565.261 10110.3C573.879 10101.7 587.852 10101.7 596.47 10110.3L596.473 10110.3L599.247 10113.1L602.074 10110.4C610.713 10102.1 624.453 10102.2 632.966 10110.7C641.48 10119.2 641.583 10132.9 633.277 10141.6L633.124 10141.7Z" stroke="#B366FF" stroke-width="8"/>
<path d="M297.124 10141.7L264.156 10174.7C263.682 10175.2 262.914 10175.2 262.44 10174.7L229.261 10141.5C220.643 10132.9 220.643 10118.9 229.261 10110.3C237.879 10101.7 251.852 10101.7 260.47 10110.3L260.473 10110.3L263.247 10113.1L266.074 10110.4C274.713 10102.1 288.453 10102.2 296.966 10110.7C305.48 10119.2 305.583 10132.9 297.277 10141.6L297.124 10141.7Z" stroke="#B366FF" stroke-width="8"/>
<path d="M633.124 9979.75L600.156 10012.7C599.682 10013.2 598.914 10013.2 598.44 10012.7L565.261 9979.53C556.643 9970.92 556.643 9956.94 565.261 9948.33C573.879 9939.71 587.852 9939.71 596.47 9948.33L596.473 9948.33L599.247 9951.1L602.074 9948.38C610.713 9940.08 624.453 9940.18 632.966 9948.69C641.48 9957.21 641.583 9970.95 633.277 9979.59L633.124 9979.75Z" stroke="#B366FF" stroke-width="8"/>
<path d="M297.124 9979.75L264.156 10012.7C263.682 10013.2 262.914 10013.2 262.44 10012.7L229.261 9979.53C220.643 9970.92 220.643 9956.94 229.261 9948.33C237.879 9939.71 251.852 9939.71 260.47 9948.33L260.473 9948.33L263.247 9951.1L266.074 9948.38C274.713 9940.08 288.453 9940.18 296.966 9948.69C305.48 9957.21 305.583 9970.95 297.277 9979.59L297.124 9979.75Z" stroke="#B366FF" stroke-width="8"/>
<path d="M465.124 9979.75L432.156 10012.7C431.682 10013.2 430.914 10013.2 430.44 10012.7L397.261 9979.53C388.643 9970.92 388.643 9956.94 397.261 9948.33C405.879 9939.71 419.852 9939.71 428.47 9948.33L428.473 9948.33L431.247 9951.1L434.074 9948.38C442.713 9940.08 456.453 9940.18 464.966 9948.69C473.48 9957.21 473.583 9970.95 465.277 9979.59L465.124 9979.75Z" stroke="#B366FF" stroke-width="8"/>
<rect x="20" y="10667" width="822" height="1122" rx="20" fill="#1A0033"/>
<g clip-path="url(#clip8_5_91)">
<path d="M121.998 10826C121.4 10826 121.102 10825.7 121.102 10825.2C121.102 10824.8 121.272 10824.3 121.614 10823.7L163.726 10745.2H112.142C110.179 10745.2 109.198 10744.3 109.198 10742.4V10741.5C109.198 10740.6 109.411 10739.9 109.838 10739.6C110.35 10739.2 111.118 10739 112.142 10739H169.998C171.875 10739 172.814 10739.8 172.814 10741.5C172.814 10742.1 172.6 10742.8 172.174 10743.7C171.832 10744.5 171.406 10745.3 170.894 10746.3L128.654 10825.2C128.483 10825.6 128.27 10825.8 128.014 10825.9C127.843 10826 127.544 10826 127.118 10826H121.998Z" fill="#B366FF"/>
<path d="M140.798 10885.5C130.618 10875.3 114.113 10875.3 103.933 10885.5C93.7526 10895.7 93.7526 10912.2 103.933 10922.4L137.112 10955.5C139.148 10957.6 142.449 10957.6 144.485 10955.5L177.664 10922.4L177.66 10922.4C187.474 10912.2 187.352 10895.9 177.295 10885.9C167.238 10875.8 151.008 10875.7 140.802 10885.5L140.798 10885.5Z" fill="#B366FF"/>
<path d="M732.002 11626C732.6 11626 732.898 11626.3 732.898 11626.8C732.898 11627.2 732.728 11627.7 732.386 11628.3L690.274 11706.8H741.858C743.821 11706.8 744.802 11707.7 744.802 11709.6V11710.5C744.802 11711.4 744.589 11712.1 744.162 11712.4C743.65 11712.8 742.882 11713 741.858 11713H684.002C682.125 11713 681.186 11712.2 681.186 11710.5C681.186 11709.9 681.4 11709.2 681.826 11708.3C682.168 11707.5 682.594 11706.7 683.106 11705.7L725.346 11626.8C725.517 11626.4 725.73 11626.2 725.986 11626.1C726.157 11626 726.456 11626 726.882 11626H732.002Z" fill="#B366FF"/>
<path d="M713.202 11566.5C723.382 11576.7 739.887 11576.7 750.067 11566.5C760.247 11556.3 760.247 11539.8 750.067 11529.6L716.888 11496.5C714.852 11494.4 711.551 11494.4 709.515 11496.5L676.336 11529.6L676.34 11529.6C666.526 11539.8 666.648 11556.1 676.705 11566.1C686.762 11576.2 702.992 11576.3 713.198 11566.5L713.202 11566.5Z" fill="#B366FF"/>
</g>
<path d="M465.124 11243.7L432.156 11276.7C431.682 11277.2 430.914 11277.2 430.44 11276.7L397.261 11243.5C388.643 11234.9 388.643 11220.9 397.261 11212.3C405.879 11203.7 419.852 11203.7 428.47 11212.3L428.473 11212.3L431.247 11215.1L434.074 11212.4C442.713 11204.1 456.453 11204.2 464.966 11212.7C473.48 11221.2 473.583 11234.9 465.277 11243.6L465.124 11243.7Z" stroke="#B366FF" stroke-width="8"/>
<path d="M465.124 11405.7L432.156 11438.7C431.682 11439.2 430.914 11439.2 430.44 11438.7L397.261 11405.5C388.643 11396.9 388.643 11382.9 397.261 11374.3C405.879 11365.7 419.852 11365.7 428.47 11374.3L428.473 11374.3L431.247 11377.1L434.074 11374.4C442.713 11366.1 456.453 11366.2 464.966 11374.7C473.48 11383.2 473.583 11396.9 465.277 11405.6L465.124 11405.7Z" stroke="#B366FF" stroke-width="8"/>
<path d="M633.124 11243.7L600.156 11276.7C599.682 11277.2 598.914 11277.2 598.44 11276.7L565.261 11243.5C556.643 11234.9 556.643 11220.9 565.261 11212.3C573.879 11203.7 587.852 11203.7 596.47 11212.3L596.473 11212.3L599.247 11215.1L602.074 11212.4C610.713 11204.1 624.453 11204.2 632.966 11212.7C641.48 11221.2 641.583 11234.9 633.277 11243.6L633.124 11243.7Z" stroke="#B366FF" stroke-width="8"/>
<path d="M297.124 11243.7L264.156 11276.7C263.682 11277.2 262.914 11277.2 262.44 11276.7L229.261 11243.5C220.643 11234.9 220.643 11220.9 229.261 11212.3C237.879 11203.7 251.852 11203.7 260.47 11212.3L260.473 11212.3L263.247 11215.1L266.074 11212.4C274.713 11204.1 288.453 11204.2 296.966 11212.7C305.48 11221.2 305.583 11234.9 297.277 11243.6L297.124 11243.7Z" stroke="#B366FF" stroke-width="8"/>
<path d="M633.124 11081.7L600.156 11114.7C599.682 11115.2 598.914 11115.2 598.44 11114.7L565.261 11081.5C556.643 11072.9 556.643 11058.9 565.261 11050.3C573.879 11041.7 587.852 11041.7 596.47 11050.3L596.473 11050.3L599.247 11053.1L602.074 11050.4C610.713 11042.1 624.453 11042.2 632.966 11050.7C641.48 11059.2 641.583 11072.9 633.277 11081.6L633.124 11081.7Z" stroke="#B366FF" stroke-width="8"/>
<path d="M297.124 11081.7L264.156 11114.7C263.682 11115.2 262.914 11115.2 262.44 11114.7L229.261 11081.5C220.643 11072.9 220.643 11058.9 229.261 11050.3C237.879 11041.7 251.852 11041.7 260.47 11050.3L260.473 11050.3L263.247 11053.1L266.074 11050.4C274.713 11042.1 288.453 11042.2 296.966 11050.7C305.48 11059.2 305.583 11072.9 297.277 11081.6L297.124 11081.7Z" stroke="#B366FF" stroke-width="8"/>
<path d="M465.124 11081.7L432.156 11114.7C431.682 11115.2 430.914 11115.2 430.44 11114.7L397.261 11081.5C388.643 11072.9 388.643 11058.9 397.261 11050.3C405.879 11041.7 419.852 11041.7 428.47 11050.3L428.473 11050.3L431.247 11053.1L434.074 11050.4C442.713 11042.1 456.453 11042.2 464.966 11050.7C473.48 11059.2 473.583 11072.9 465.277 11081.6L465.124 11081.7Z" stroke="#B366FF" stroke-width="8"/>
<rect x="20" y="11850" width="822" height="1122" rx="20" fill="#1A0033"/>
<g clip-path="url(#clip9_5_91)">
<path d="M141.008 12010.9C130.597 12010.9 122.448 12008.7 116.56 12004.4C110.672 12000 107.728 11993.9 107.728 11986.1C107.728 11980.5 109.264 11975.7 112.336 11971.8C115.493 11967.7 119.674 11965.1 124.88 11963.7C115.237 11960.2 110.416 11953.6 110.416 11944C110.416 11936.3 113.018 11930.4 118.224 11926.3C123.514 11922.1 131.109 11920 141.008 11920C150.906 11920 158.458 11922.1 163.664 11926.3C168.954 11930.4 171.6 11936.3 171.6 11944C171.6 11953.6 166.778 11960.2 157.136 11963.7C162.341 11965.1 166.48 11967.7 169.552 11971.8C172.709 11975.7 174.288 11980.5 174.288 11986.1C174.288 11993.9 171.344 12000 165.456 12004.4C159.568 12008.7 151.418 12010.9 141.008 12010.9ZM141.008 11960.7C148.858 11960.7 154.789 11959.5 158.8 11956.9C162.896 11954.3 164.944 11950 164.944 11944C164.944 11937.6 162.981 11933 159.056 11930.2C155.13 11927.3 149.114 11925.9 141.008 11925.9C132.901 11925.9 126.885 11927.3 122.96 11930.2C119.034 11933 117.072 11937.6 117.072 11944C117.072 11950 119.077 11954.3 123.088 11956.9C127.184 11959.5 133.157 11960.7 141.008 11960.7ZM141.008 12005C149.968 12005 156.624 12003.5 160.976 12000.4C165.413 11997.3 167.632 11992.5 167.632 11986.1C167.632 11973.2 158.757 11966.8 141.008 11966.8C123.258 11966.8 114.384 11973.2 114.384 11986.1C114.384 11992.5 116.56 11997.3 120.912 12000.4C125.349 12003.5 132.048 12005 141.008 12005Z" fill="#B366FF"/>
<path d="M140.798 12068.5C130.618 12058.3 114.113 12058.3 103.933 12068.5C93.7526 12078.7 93.7526 12095.2 103.933 12105.4L137.112 12138.5C139.148 12140.6 142.449 12140.6 144.485 12138.5L177.664 12105.4L177.66 12105.4C187.474 12095.2 187.352 12078.9 177.295 12068.9C167.238 12058.8 151.008 12058.7 140.802 12068.5L140.798 12068.5Z" fill="#B366FF"/>
<path d="M712.992 12807.1C723.403 12807.1 731.552 12809.3 737.44 12813.6C743.328 12818 746.272 12824.1 746.272 12831.9C746.272 12837.5 744.736 12842.3 741.664 12846.2C738.507 12850.3 734.326 12852.9 729.12 12854.3C738.763 12857.8 743.584 12864.4 743.584 12874C743.584 12881.7 740.982 12887.6 735.776 12891.7C730.486 12895.9 722.891 12898 712.992 12898C703.094 12898 695.542 12895.9 690.336 12891.7C685.046 12887.6 682.4 12881.7 682.4 12874C682.4 12864.4 687.222 12857.8 696.864 12854.3C691.659 12852.9 687.52 12850.3 684.448 12846.2C681.291 12842.3 679.712 12837.5 679.712 12831.9C679.712 12824.1 682.656 12818 688.544 12813.6C694.432 12809.3 702.582 12807.1 712.992 12807.1ZM712.992 12857.3C705.142 12857.3 699.211 12858.5 695.2 12861.1C691.104 12863.7 689.056 12868 689.056 12874C689.056 12880.4 691.019 12885 694.944 12887.8C698.87 12890.7 704.886 12892.1 712.992 12892.1C721.099 12892.1 727.115 12890.7 731.04 12887.8C734.966 12885 736.928 12880.4 736.928 12874C736.928 12868 734.923 12863.7 730.912 12861.1C726.816 12858.5 720.843 12857.3 712.992 12857.3ZM712.992 12813C704.032 12813 697.376 12814.5 693.024 12817.6C688.587 12820.7 686.368 12825.5 686.368 12831.9C686.368 12844.8 695.243 12851.2 712.992 12851.2C730.742 12851.2 739.616 12844.8 739.616 12831.9C739.616 12825.5 737.44 12820.7 733.088 12817.6C728.651 12814.5 721.952 12813 712.992 12813Z" fill="#B366FF"/>
<path d="M713.202 12749.5C723.382 12759.7 739.887 12759.7 750.067 12749.5C760.247 12739.3 760.247 12722.8 750.067 12712.6L716.888 12679.5C714.852 12677.4 711.551 12677.4 709.515 12679.5L676.336 12712.6L676.34 12712.6C666.526 12722.8 666.648 12739.1 676.705 12749.1C686.762 12759.2 702.992 12759.3 713.198 12749.5L713.202 12749.5Z" fill="#B366FF"/>
</g>
<path d="M465.124 12426.7L432.156 12459.7C431.682 12460.2 430.914 12460.2 430.44 12459.7L397.261 12426.5C388.643 12417.9 388.643 12403.9 397.261 12395.3C405.879 12386.7 419.852 12386.7 428.47 12395.3L428.473 12395.3L431.247 12398.1L434.074 12395.4C442.713 12387.1 456.453 12387.2 464.966 12395.7C473.48 12404.2 473.583 12417.9 465.277 12426.6L465.124 12426.7Z" stroke="#B366FF" stroke-width="8"/>
<path d="M381.124 12588.7L348.156 12621.7C347.682 12622.2 346.914 12622.2 346.44 12621.7L313.261 12588.5C304.643 12579.9 304.643 12565.9 313.261 12557.3C321.879 12548.7 335.852 12548.7 344.47 12557.3L344.473 12557.3L347.247 12560.1L350.074 12557.4C358.713 12549.1 372.453 12549.2 380.966 12557.7C389.48 12566.2 389.583 12579.9 381.277 12588.6L381.124 12588.7Z" stroke="#B366FF" stroke-width="8"/>
<path d="M548.124 12588.7L515.156 12621.7C514.682 12622.2 513.914 12622.2 513.44 12621.7L480.261 12588.5C471.643 12579.9 471.643 12565.9 480.261 12557.3C488.879 12548.7 502.852 12548.7 511.47 12557.3L511.473 12557.3L514.247 12560.1L517.074 12557.4C525.713 12549.1 539.453 12549.2 547.966 12557.7C556.48 12566.2 556.583 12579.9 548.277 12588.6L548.124 12588.7Z" stroke="#B366FF" stroke-width="8"/>
<path d="M633.124 12426.7L600.156 12459.7C599.682 12460.2 598.914 12460.2 598.44 12459.7L565.261 12426.5C556.643 12417.9 556.643 12403.9 565.261 12395.3C573.879 12386.7 587.852 12386.7 596.47 12395.3L596.473 12395.3L599.247 12398.1L602.074 12395.4C610.713 12387.1 624.453 12387.2 632.966 12395.7C641.48 12404.2 641.583 12417.9 633.277 12426.6L633.124 12426.7Z" stroke="#B366FF" stroke-width="8"/>
<path d="M297.124 12426.7L264.156 12459.7C263.682 12460.2 262.914 12460.2 262.44 12459.7L229.261 12426.5C220.643 12417.9 220.643 12403.9 229.261 12395.3C237.879 12386.7 251.852 12386.7 260.47 12395.3L260.473 12395.3L263.247 12398.1L266.074 12395.4C274.713 12387.1 288.453 12387.2 296.966 12395.7C305.48 12404.2 305.583 12417.9 297.277 12426.6L297.124 12426.7Z" stroke="#B366FF" stroke-width="8"/>
<path d="M633.124 12264.7L600.156 12297.7C599.682 12298.2 598.914 12298.2 598.44 12297.7L565.261 12264.5C556.643 12255.9 556.643 12241.9 565.261 12233.3C573.879 12224.7 587.852 12224.7 596.47 12233.3L596.473 12233.3L599.247 12236.1L602.074 12233.4C610.713 12225.1 624.453 12225.2 632.966 12233.7C641.48 12242.2 641.583 12255.9 633.277 12264.6L633.124 12264.7Z" stroke="#B366FF" stroke-width="8"/>
<path d="M297.124 12264.7L264.156 12297.7C263.682 12298.2 262.914 12298.2 262.44 12297.7L229.261 12264.5C220.643 12255.9 220.643 12241.9 229.261 12233.3C237.879 12224.7 251.852 12224.7 260.47 12233.3L260.473 12233.3L263.247 12236.1L266.074 12233.4C274.713 12225.1 288.453 12225.2 296.966 12233.7C305.48 12242.2 305.583 12255.9 297.277 12264.6L297.124 12264.7Z" stroke="#B366FF" stroke-width="8"/>
<path d="M465.124 12264.7L432.156 12297.7C431.682 12298.2 430.914 12298.2 430.44 12297.7L397.261 12264.5C388.643 12255.9 388.643 12241.9 397.261 12233.3C405.879 12224.7 419.852 12224.7 428.47 12233.3L428.473 12233.3L431.247 12236.1L434.074 12233.4C442.713 12225.1 456.453 12225.2 464.966 12233.7C473.48 12242.2 473.583 12255.9 465.277 12264.6L465.124 12264.7Z" stroke="#B366FF" stroke-width="8"/>
<rect x="20" y="13033" width="822" height="1122" rx="20" fill="#1A0033"/>
<g clip-path="url(#clip10_5_91)">
<path d="M138.254 13193.9C133.475 13193.9 129.123 13193.4 125.198 13192.4C121.358 13191.4 118.115 13190 115.47 13188.2C114.958 13187.8 114.659 13187.5 114.574 13187.3C114.489 13187 114.574 13186.6 114.83 13186.1L116.494 13183.3C116.75 13182.8 117.049 13182.5 117.39 13182.5C117.561 13182.5 117.859 13182.7 118.286 13182.9C123.662 13186.3 130.361 13188 138.382 13188C146.659 13188 153.315 13185 158.35 13179.1C163.47 13173 166.371 13164.5 167.054 13153.6C160.398 13161.7 151.481 13165.8 140.302 13165.8C133.987 13165.8 128.355 13164.6 123.406 13162.3C118.542 13159.9 114.702 13156.5 111.886 13152.2C109.155 13147.8 107.79 13142.5 107.79 13136.3C107.79 13125.4 110.905 13117.1 117.134 13111.5C123.363 13105.9 131.854 13103 142.606 13103C152.334 13103 160.014 13106.2 165.646 13112.5C171.363 13118.7 174.222 13128.6 174.222 13142.1C174.222 13161 170.723 13174.4 163.726 13182.3C156.729 13190 148.238 13193.9 138.254 13193.9ZM141.454 13159.7C145.465 13159.7 149.475 13158.9 153.486 13157.2C157.497 13155.4 160.782 13152.8 163.342 13149.5C165.987 13146.1 167.31 13142 167.31 13137.2C167.31 13127.8 165.134 13120.8 160.782 13116.1C156.43 13111.3 150.371 13108.9 142.606 13108.9C123.833 13108.9 114.446 13118.1 114.446 13136.3C114.446 13144 116.793 13149.8 121.486 13153.9C126.179 13157.8 132.835 13159.7 141.454 13159.7Z" fill="#B366FF"/>
<path d="M140.798 13251.5C130.618 13241.3 114.113 13241.3 103.933 13251.5C93.7526 13261.7 93.7526 13278.2 103.933 13288.4L137.112 13321.5C139.148 13323.6 142.449 13323.6 144.485 13321.5L177.664 13288.4L177.66 13288.4C187.474 13278.2 187.352 13261.9 177.295 13251.9C167.238 13241.8 151.008 13241.7 140.802 13251.5L140.798 13251.5Z" fill="#B366FF"/>
<path d="M715.746 13990.1C720.525 13990.1 724.877 13990.6 728.802 13991.6C732.642 13992.6 735.885 13994 738.53 13995.8C739.042 13996.2 739.341 13996.5 739.426 13996.7C739.511 13997 739.426 13997.4 739.17 13997.9L737.506 14000.7C737.25 14001.2 736.951 14001.5 736.61 14001.5C736.439 14001.5 736.141 14001.3 735.714 14001.1C730.338 13997.7 723.639 13996 715.618 13996C707.341 13996 700.685 13999 695.65 14004.9C690.53 14011 687.629 14019.5 686.946 14030.4C693.602 14022.3 702.519 14018.2 713.698 14018.2C720.013 14018.2 725.645 14019.4 730.594 14021.7C735.458 14024.1 739.298 14027.5 742.114 14031.8C744.845 14036.2 746.21 14041.5 746.21 14047.7C746.21 14058.6 743.095 14066.9 736.866 14072.5C730.637 14078.1 722.146 14081 711.394 14081C701.666 14081 693.986 14077.8 688.354 14071.5C682.637 14065.3 679.778 14055.4 679.778 14041.9C679.778 14023 683.277 14009.6 690.274 14001.7C697.271 13994 705.762 13990.1 715.746 13990.1ZM712.546 14024.3C708.535 14024.3 704.525 14025.1 700.514 14026.8C696.503 14028.6 693.218 14031.2 690.658 14034.5C688.013 14037.9 686.69 14042 686.69 14046.8C686.69 14056.2 688.866 14063.2 693.218 14067.9C697.57 14072.7 703.629 14075.1 711.394 14075.1C730.167 14075.1 739.554 14065.9 739.554 14047.7C739.554 14040 737.207 14034.2 732.514 14030.1C727.821 14026.2 721.165 14024.3 712.546 14024.3Z" fill="#B366FF"/>
<path d="M713.202 13932.5C723.382 13942.7 739.887 13942.7 750.067 13932.5C760.247 13922.3 760.247 13905.8 750.067 13895.6L716.888 13862.5C714.852 13860.4 711.551 13860.4 709.515 13862.5L676.336 13895.6L676.34 13895.6C666.526 13905.8 666.648 13922.1 676.705 13932.1C686.762 13942.2 702.992 13942.3 713.198 13932.5L713.202 13932.5Z" fill="#B366FF"/>
</g>
<path d="M465.124 13609.7L432.156 13642.7C431.682 13643.2 430.914 13643.2 430.44 13642.7L397.261 13609.5C388.643 13600.9 388.643 13586.9 397.261 13578.3C405.879 13569.7 419.852 13569.7 428.47 13578.3L428.473 13578.3L431.247 13581.1L434.074 13578.4C442.713 13570.1 456.453 13570.2 464.966 13578.7C473.48 13587.2 473.583 13600.9 465.277 13609.6L465.124 13609.7Z" stroke="#B366FF" stroke-width="8"/>
<path d="M297.124 13771.7L264.156 13804.7C263.682 13805.2 262.914 13805.2 262.44 13804.7L229.261 13771.5C220.643 13762.9 220.643 13748.9 229.261 13740.3C237.879 13731.7 251.852 13731.7 260.47 13740.3L260.473 13740.3L263.247 13743.1L266.074 13740.4C274.713 13732.1 288.453 13732.2 296.966 13740.7C305.48 13749.2 305.583 13762.9 297.277 13771.6L297.124 13771.7Z" stroke="#B366FF" stroke-width="8"/>
<path d="M461.124 13771.7L428.156 13804.7C427.682 13805.2 426.914 13805.2 426.44 13804.7L393.261 13771.5C384.643 13762.9 384.643 13748.9 393.261 13740.3C401.879 13731.7 415.852 13731.7 424.47 13740.3L424.473 13740.3L427.247 13743.1L430.074 13740.4C438.713 13732.1 452.453 13732.2 460.966 13740.7C469.48 13749.2 469.583 13762.9 461.277 13771.6L461.124 13771.7Z" stroke="#B366FF" stroke-width="8"/>
<path d="M633.124 13771.7L600.156 13804.7C599.682 13805.2 598.914 13805.2 598.44 13804.7L565.261 13771.5C556.643 13762.9 556.643 13748.9 565.261 13740.3C573.879 13731.7 587.852 13731.7 596.47 13740.3L596.473 13740.3L599.247 13743.1L602.074 13740.4C610.713 13732.1 624.453 13732.2 632.966 13740.7C641.48 13749.2 641.583 13762.9 633.277 13771.6L633.124 13771.7Z" stroke="#B366FF" stroke-width="8"/>
<path d="M633.124 13609.7L600.156 13642.7C599.682 13643.2 598.914 13643.2 598.44 13642.7L565.261 13609.5C556.643 13600.9 556.643 13586.9 565.261 13578.3C573.879 13569.7 587.852 13569.7 596.47 13578.3L596.473 13578.3L599.247 13581.1L602.074 13578.4C610.713 13570.1 624.453 13570.2 632.966 13578.7C641.48 13587.2 641.583 13600.9 633.277 13609.6L633.124 13609.7Z" stroke="#B366FF" stroke-width="8"/>
<path d="M297.124 13609.7L264.156 13642.7C263.682 13643.2 262.914 13643.2 262.44 13642.7L229.261 13609.5C220.643 13600.9 220.643 13586.9 229.261 13578.3C237.879 13569.7 251.852 13569.7 260.47 13578.3L260.473 13578.3L263.247 13581.1L266.074 13578.4C274.713 13570.1 288.453 13570.2 296.966 13578.7C305.48 13587.2 305.583 13600.9 297.277 13609.6L297.124 13609.7Z" stroke="#B366FF" stroke-width="8"/>
<path d="M633.124 13447.7L600.156 13480.7C599.682 13481.2 598.914 13481.2 598.44 13480.7L565.261 13447.5C556.643 13438.9 556.643 13424.9 565.261 13416.3C573.879 13407.7 587.852 13407.7 596.47 13416.3L596.473 13416.3L599.247 13419.1L602.074 13416.4C610.713 13408.1 624.453 13408.2 632.966 13416.7C641.48 13425.2 641.583 13438.9 633.277 13447.6L633.124 13447.7Z" stroke="#B366FF" stroke-width="8"/>
<path d="M297.124 13447.7L264.156 13480.7C263.682 13481.2 262.914 13481.2 262.44 13480.7L229.261 13447.5C220.643 13438.9 220.643 13424.9 229.261 13416.3C237.879 13407.7 251.852 13407.7 260.47 13416.3L260.473 13416.3L263.247 13419.1L266.074 13416.4C274.713 13408.1 288.453 13408.2 296.966 13416.7C305.48 13425.2 305.583 13438.9 297.277 13447.6L297.124 13447.7Z" stroke="#B366FF" stroke-width="8"/>
<path d="M465.124 13447.7L432.156 13480.7C431.682 13481.2 430.914 13481.2 430.44 13480.7L397.261 13447.5C388.643 13438.9 388.643 13424.9 397.261 13416.3C405.879 13407.7 419.852 13407.7 428.47 13416.3L428.473 13416.3L431.247 13419.1L434.074 13416.4C442.713 13408.1 456.453 13408.2 464.966 13416.7C473.48 13425.2 473.583 13438.9 465.277 13447.6L465.124 13447.7Z" stroke="#B366FF" stroke-width="8"/>
<rect x="20" y="14216" width="822" height="1122" rx="20" fill="#1A0033"/>
<g clip-path="url(#clip11_5_91)">
<path d="M76.5765 14375C75.5525 14375 74.7845 14374.8 74.2725 14374.5C73.8458 14374.1 73.6325 14373.4 73.6325 14372.4V14371.5C73.6325 14369.7 74.6138 14368.7 76.5765 14368.7H92.1925V14296.4L77.3445 14305.4C76.5765 14305.9 75.8938 14306.1 75.2965 14306.1C74.6138 14306.1 74.0165 14305.7 73.5045 14304.7L72.9925 14304C72.6512 14303.4 72.4805 14302.8 72.4805 14302.3C72.4805 14301.4 72.9925 14300.6 74.0165 14300L92.9605 14288.6C93.6432 14288.2 94.4538 14288 95.3925 14288H96.1605C98.1232 14288 99.1045 14288.9 99.1045 14290.9V14368.7H114.721C116.683 14368.7 117.665 14369.7 117.665 14371.5V14372.4C117.665 14373.4 117.409 14374.1 116.897 14374.5C116.47 14374.8 115.745 14375 114.721 14375H76.5765ZM169.42 14376.9C156.278 14376.9 146.294 14373 139.468 14365.1C132.641 14357.2 129.228 14346 129.228 14331.5C129.228 14317 132.641 14305.8 139.468 14297.9C146.294 14290 156.278 14286 169.42 14286C182.561 14286 192.545 14290 199.372 14297.9C206.198 14305.8 209.612 14317 209.612 14331.5C209.612 14346 206.198 14357.2 199.372 14365.1C192.545 14373 182.561 14376.9 169.42 14376.9ZM189.9 14297.7C184.609 14293.8 177.782 14291.9 169.42 14291.9C158.412 14291.9 150.049 14295.3 144.332 14302C138.7 14308.7 135.884 14318.5 135.884 14331.5C135.884 14344.8 138.828 14354.8 144.716 14361.4L189.9 14297.7ZM169.42 14371C180.428 14371 188.748 14367.7 194.38 14361C200.097 14354.3 202.956 14344.5 202.956 14331.5C202.956 14318.7 200.14 14308.9 194.507 14302L149.452 14365.7C154.572 14369.2 161.228 14371 169.42 14371Z" fill="#B366FF"/>
<path d="M140.798 14434.5C130.618 14424.3 114.113 14424.3 103.933 14434.5C93.7526 14444.7 93.7526 14461.2 103.933 14471.4L137.112 14504.5C139.148 14506.6 142.449 14506.6 144.485 14504.5L177.664 14471.4L177.66 14471.4C187.474 14461.2 187.352 14444.9 177.295 14434.9C167.238 14424.8 151.008 14424.7 140.802 14434.5L140.798 14434.5Z" fill="#B366FF"/>
<path d="M777.423 15175C778.447 15175 779.215 15175.2 779.727 15175.5C780.154 15175.9 780.367 15176.6 780.367 15177.6V15178.5C780.367 15180.3 779.386 15181.3 777.423 15181.3H761.807V15253.6L776.655 15244.6C777.423 15244.1 778.106 15243.9 778.703 15243.9C779.386 15243.9 779.983 15244.3 780.495 15245.3L781.007 15246C781.349 15246.6 781.519 15247.2 781.519 15247.7C781.519 15248.6 781.007 15249.4 779.983 15250L761.039 15261.4C760.357 15261.8 759.546 15262 758.607 15262H757.839C755.877 15262 754.896 15261.1 754.896 15259.1V15181.3H739.279C737.317 15181.3 736.335 15180.3 736.335 15178.5V15177.6C736.335 15176.6 736.591 15175.9 737.103 15175.5C737.53 15175.2 738.255 15175 739.279 15175H777.423ZM684.58 15173.1C697.722 15173.1 707.706 15177 714.532 15184.9C721.359 15192.8 724.772 15204 724.772 15218.5C724.772 15233 721.359 15244.2 714.532 15252.1C707.706 15260 697.722 15264 684.58 15264C671.439 15264 661.455 15260 654.628 15252.1C647.802 15244.2 644.388 15233 644.388 15218.5C644.388 15204 647.802 15192.8 654.628 15184.9C661.455 15177 671.439 15173.1 684.58 15173.1ZM664.1 15252.3C669.391 15256.2 676.218 15258.1 684.58 15258.1C695.588 15258.1 703.951 15254.7 709.668 15248C715.3 15241.3 718.116 15231.5 718.116 15218.5C718.116 15205.2 715.172 15195.2 709.284 15188.6L664.1 15252.3ZM684.58 15179C673.572 15179 665.252 15182.3 659.62 15189C653.903 15195.7 651.044 15205.5 651.044 15218.5C651.044 15231.3 653.86 15241.1 659.493 15248L704.548 15184.3C699.428 15180.8 692.772 15179 684.58 15179Z" fill="#B366FF"/>
<path d="M713.202 15115.5C723.382 15125.7 739.887 15125.7 750.067 15115.5C760.247 15105.3 760.247 15088.8 750.067 15078.6L716.888 15045.5C714.852 15043.4 711.551 15043.4 709.515 15045.5L676.336 15078.6L676.34 15078.6C666.526 15088.8 666.648 15105.1 676.705 15115.1C686.762 15125.2 702.992 15125.3 713.198 15115.5L713.202 15115.5Z" fill="#B366FF"/>
</g>
<path d="M465.124 14711.7L432.156 14744.7C431.682 14745.2 430.914 14745.2 430.44 14744.7L397.261 14711.5C388.643 14702.9 388.643 14688.9 397.261 14680.3C405.879 14671.7 419.852 14671.7 428.47 14680.3L428.473 14680.3L431.247 14683.1L434.074 14680.4C442.713 14672.1 456.453 14672.2 464.966 14680.7C473.48 14689.2 473.583 14702.9 465.277 14711.6L465.124 14711.7Z" stroke="#B366FF" stroke-width="8"/>
<path d="M297.124 14873.7L264.156 14906.7C263.682 14907.2 262.914 14907.2 262.44 14906.7L229.261 14873.5C220.643 14864.9 220.643 14850.9 229.261 14842.3C237.879 14833.7 251.852 14833.7 260.47 14842.3L260.473 14842.3L263.247 14845.1L266.074 14842.4C274.713 14834.1 288.453 14834.2 296.966 14842.7C305.48 14851.2 305.583 14864.9 297.277 14873.6L297.124 14873.7Z" stroke="#B366FF" stroke-width="8"/>
<path d="M461.124 14873.7L428.156 14906.7C427.682 14907.2 426.914 14907.2 426.44 14906.7L393.261 14873.5C384.643 14864.9 384.643 14850.9 393.261 14842.3C401.879 14833.7 415.852 14833.7 424.47 14842.3L424.473 14842.3L427.247 14845.1L430.074 14842.4C438.713 14834.1 452.453 14834.2 460.966 14842.7C469.48 14851.2 469.583 14864.9 461.277 14873.6L461.124 14873.7Z" stroke="#B366FF" stroke-width="8"/>
<path d="M465.124 15035.7L432.156 15068.7C431.682 15069.2 430.914 15069.2 430.44 15068.7L397.261 15035.5C388.643 15026.9 388.643 15012.9 397.261 15004.3C405.879 14995.7 419.852 14995.7 428.47 15004.3L428.473 15004.3L431.247 15007.1L434.074 15004.4C442.713 14996.1 456.453 14996.2 464.966 15004.7C473.48 15013.2 473.583 15026.9 465.277 15035.6L465.124 15035.7Z" stroke="#B366FF" stroke-width="8"/>
<path d="M633.124 14873.7L600.156 14906.7C599.682 14907.2 598.914 14907.2 598.44 14906.7L565.261 14873.5C556.643 14864.9 556.643 14850.9 565.261 14842.3C573.879 14833.7 587.852 14833.7 596.47 14842.3L596.473 14842.3L599.247 14845.1L602.074 14842.4C610.713 14834.1 624.453 14834.2 632.966 14842.7C641.48 14851.2 641.583 14864.9 633.277 14873.6L633.124 14873.7Z" stroke="#B366FF" stroke-width="8"/>
<path d="M633.124 14711.7L600.156 14744.7C599.682 14745.2 598.914 14745.2 598.44 14744.7L565.261 14711.5C556.643 14702.9 556.643 14688.9 565.261 14680.3C573.879 14671.7 587.852 14671.7 596.47 14680.3L596.473 14680.3L599.247 14683.1L602.074 14680.4C610.713 14672.1 624.453 14672.2 632.966 14680.7C641.48 14689.2 641.583 14702.9 633.277 14711.6L633.124 14711.7Z" stroke="#B366FF" stroke-width="8"/>
<path d="M297.124 14711.7L264.156 14744.7C263.682 14745.2 262.914 14745.2 262.44 14744.7L229.261 14711.5C220.643 14702.9 220.643 14688.9 229.261 14680.3C237.879 14671.7 251.852 14671.7 260.47 14680.3L260.473 14680.3L263.247 14683.1L266.074 14680.4C274.713 14672.1 288.453 14672.2 296.966 14680.7C305.48 14689.2 305.583 14702.9 297.277 14711.6L297.124 14711.7Z" stroke="#B366FF" stroke-width="8"/>
<path d="M633.124 14549.7L600.156 14582.7C599.682 14583.2 598.914 14583.2 598.44 14582.7L565.261 14549.5C556.643 14540.9 556.643 14526.9 565.261 14518.3C573.879 14509.7 587.852 14509.7 596.47 14518.3L596.473 14518.3L599.247 14521.1L602.074 14518.4C610.713 14510.1 624.453 14510.2 632.966 14518.7C641.48 14527.2 641.583 14540.9 633.277 14549.6L633.124 14549.7Z" stroke="#B366FF" stroke-width="8"/>
<path d="M297.124 14549.7L264.156 14582.7C263.682 14583.2 262.914 14583.2 262.44 14582.7L229.261 14549.5C220.643 14540.9 220.643 14526.9 229.261 14518.3C237.879 14509.7 251.852 14509.7 260.47 14518.3L260.473 14518.3L263.247 14521.1L266.074 14518.4C274.713 14510.1 288.453 14510.2 296.966 14518.7C305.48 14527.2 305.583 14540.9 297.277 14549.6L297.124 14549.7Z" stroke="#B366FF" stroke-width="8"/>
<path d="M465.124 14549.7L432.156 14582.7C431.682 14583.2 430.914 14583.2 430.44 14582.7L397.261 14549.5C388.643 14540.9 388.643 14526.9 397.261 14518.3C405.879 14509.7 419.852 14509.7 428.47 14518.3L428.473 14518.3L431.247 14521.1L434.074 14518.4C442.713 14510.1 456.453 14510.2 464.966 14518.7C473.48 14527.2 473.583 14540.9 465.277 14549.6L465.124 14549.7Z" stroke="#B366FF" stroke-width="8"/>
<rect x="20" y="7118" width="822" height="1122" rx="20" fill="#1A0033"/>
<g clip-path="url(#clip12_5_91)">
<path d="M157.898 7277C155.935 7277 154.954 7276.02 154.954 7274.06V7256.52H107.978C106.271 7256.52 105.418 7255.75 105.418 7254.22V7253.32C105.418 7252.13 105.802 7251.1 106.57 7250.25L155.21 7191.24C155.892 7190.39 156.746 7189.96 157.77 7189.96H158.922C160.884 7189.96 161.866 7190.94 161.866 7192.9V7250.25H173.642C175.604 7250.25 176.586 7251.19 176.586 7253.06V7253.96C176.586 7254.9 176.33 7255.58 175.818 7256.01C175.391 7256.35 174.666 7256.52 173.642 7256.52H161.866V7274.06C161.866 7276.02 160.884 7277 158.922 7277H157.898ZM154.954 7250.25V7200.84L114.122 7250.25H154.954Z" fill="#B366FF"/>
<path d="M140.798 7336.5C130.618 7326.32 114.113 7326.32 103.933 7336.5C93.7526 7346.68 93.7526 7363.18 103.933 7373.36L137.112 7406.54C139.148 7408.58 142.449 7408.58 144.485 7406.54L177.664 7373.36L177.66 7373.36C187.474 7363.15 187.352 7346.92 177.295 7336.87C167.238 7326.81 151.008 7326.69 140.802 7336.5L140.798 7336.5Z" fill="#B366FF"/>
<path d="M696.102 8077C698.065 8077 699.046 8077.98 699.046 8079.94V8097.48H746.022C747.729 8097.48 748.582 8098.25 748.582 8099.78V8100.68C748.582 8101.87 748.198 8102.9 747.43 8103.75L698.79 8162.76C698.108 8163.61 697.254 8164.04 696.23 8164.04H695.078C693.116 8164.04 692.134 8163.06 692.134 8161.1V8103.75H680.358C678.396 8103.75 677.414 8102.81 677.414 8100.94V8100.04C677.414 8099.1 677.67 8098.42 678.182 8097.99C678.609 8097.65 679.334 8097.48 680.358 8097.48H692.134V8079.94C692.134 8077.98 693.116 8077 695.078 8077H696.102ZM699.046 8103.75V8153.16L739.878 8103.75H699.046Z" fill="#B366FF"/>
<path d="M713.202 8017.5C723.382 8027.68 739.887 8027.68 750.067 8017.5C760.247 8007.32 760.247 7990.82 750.067 7980.64L716.888 7947.46C714.852 7945.42 711.551 7945.42 709.515 7947.46L676.336 7980.64L676.34 7980.64C666.526 7990.85 666.648 8007.08 676.705 8017.13C686.762 8027.19 702.992 8027.31 713.198 8017.5L713.202 8017.5Z" fill="#B366FF"/>
</g>
<path d="M465.124 7775.75L432.156 7808.71C431.682 7809.19 430.914 7809.19 430.44 7808.71L397.261 7775.53C388.643 7766.92 388.643 7752.94 397.261 7744.33C405.879 7735.71 419.852 7735.71 428.47 7744.33L428.473 7744.33L431.247 7747.1L434.074 7744.38C442.713 7736.08 456.453 7736.18 464.966 7744.69C473.48 7753.21 473.583 7766.95 465.277 7775.59L465.124 7775.75Z" stroke="#B366FF" stroke-width="8"/>
<path d="M633.124 7613.75L600.156 7646.71C599.682 7647.19 598.914 7647.19 598.44 7646.71L565.261 7613.53C556.643 7604.92 556.643 7590.94 565.261 7582.33C573.879 7573.71 587.852 7573.71 596.47 7582.33L596.473 7582.33L599.247 7585.1L602.074 7582.38C610.713 7574.08 624.453 7574.18 632.966 7582.69C641.48 7591.21 641.583 7604.95 633.277 7613.59L633.124 7613.75Z" stroke="#B366FF" stroke-width="8"/>
<path d="M297.124 7613.75L264.156 7646.71C263.682 7647.19 262.914 7647.19 262.44 7646.71L229.261 7613.53C220.643 7604.92 220.643 7590.94 229.261 7582.33C237.879 7573.71 251.852 7573.71 260.47 7582.33L260.473 7582.33L263.247 7585.1L266.074 7582.38C274.713 7574.08 288.453 7574.18 296.966 7582.69C305.48 7591.21 305.583 7604.95 297.277 7613.59L297.124 7613.75Z" stroke="#B366FF" stroke-width="8"/>
<path d="M465.124 7613.75L432.156 7646.71C431.682 7647.19 430.914 7647.19 430.44 7646.71L397.261 7613.53C388.643 7604.92 388.643 7590.94 397.261 7582.33C405.879 7573.71 419.852 7573.71 428.47 7582.33L428.473 7582.33L431.247 7585.1L434.074 7582.38C442.713 7574.08 456.453 7574.18 464.966 7582.69C473.48 7591.21 473.583 7604.95 465.277 7613.59L465.124 7613.75Z" stroke="#B366FF" stroke-width="8"/>
<defs>
<clipPath id="clip0_5_91">
<rect width="722" height="1022" fill="white" transform="translate(66 68)"/>
</clipPath>
<clipPath id="clip1_5_91">
<rect width="722" height="1022" fill="white" transform="translate(66 1251)"/>
</clipPath>
<clipPath id="clip2_5_91">
<rect width="722" height="1022" fill="white" transform="translate(66 2434)"/>
</clipPath>
<clipPath id="clip3_5_91">
<rect width="722" height="1022" fill="white" transform="translate(66 3617)"/>
</clipPath>
<clipPath id="clip4_5_91">
<rect width="722" height="1022" fill="white" transform="translate(66 4800)"/>
</clipPath>
<clipPath id="clip5_5_91">
<rect width="722" height="1022" fill="white" transform="translate(66 5983)"/>
</clipPath>
<clipPath id="clip6_5_91">
<rect width="722" height="1022" fill="white" transform="translate(66 8349)"/>
</clipPath>
<clipPath id="clip7_5_91">
<rect width="722" height="1022" fill="white" transform="translate(66 9532)"/>
</clipPath>
<clipPath id="clip8_5_91">
<rect width="722" height="1022" fill="white" transform="translate(66 10715)"/>
</clipPath>
<clipPath id="clip9_5_91">
<rect width="722" height="1022" fill="white" transform="translate(66 11898)"/>
</clipPath>
<clipPath id="clip10_5_91">
<rect width="722" height="1022" fill="white" transform="translate(66 13081)"/>
</clipPath>
<clipPath id="clip11_5_91">
<rect width="722" height="1022" fill="white" transform="translate(66 14264)"/>
</clipPath>
<clipPath id="clip12_5_91">
<rect width="722" height="1022" fill="white" transform="translate(66 7166)"/>
</clipPath>
</defs>
</svg>
